<?xml version="1.0" encoding="UTF-8" standalone="no"?><svg xmlns="http://www.w3.org/2000/svg" xmlns:xlink="http://www.w3.org/1999/xlink" contentScriptType="application/ecmascript" contentStyleType="text/css" height="583px" preserveAspectRatio="none" style="width:812px;height:583px;" version="1.1" viewBox="0 0 812 583" width="812px" zoomAndPan="magnify"><defs><filter height="300%" id="f1nbe1f6013yey" width="300%" x="-1" y="-1"><feGaussianBlur result="blurOut" stdDeviation="2.0"/><feColorMatrix in="blurOut" result="blurOut2" type="matrix" values="0 0 0 0 0 0 0 0 0 0 0 0 0 0 0 0 0 0 .4 0"/><feOffset dx="4.0" dy="4.0" in="blurOut2" result="blurOut3"/><feBlend in="SourceGraphic" in2="blurOut3" mode="normal"/></filter></defs><g><text fill="#000000" font-family="sans-serif" font-size="18" lengthAdjust="spacing" textLength="104" x="347.685" y="19.2419">Deployment</text><!--MD5=[48601cb3a1780083965bfa46dc6d81dd]
cluster Hosting Cloud--><path d="M175.5508,51.3427 C184.9426,35.2361 196.428,34.6452 206.9963,50.1732 C216.0688,38.3325 224.8134,38.1598 233.5399,50.5521 C240.7474,31.1512 254.7092,30.5158 267.5806,44.8341 C278.4055,30.9843 291.5093,31.2283 297.8644,49.1012 C308.25,35.1664 318.2531,38.2952 327.3,50.6028 C341.5196,35.8719 353.6118,41.5252 361.5,57.626 C363.3644,58.7611 363.478,59.9776 361.7358,61.3416 C372.3387,67.0694 371.5505,78.331 361.9726,84.2673 C373.0493,89.5064 375.2276,98.9847 366.5917,108.0521 C380.7412,117.6524 378.0842,126.0742 365.7003,134.7899 C378.4537,143.1372 377.0078,153.0619 364.3653,160.0679 C376.2585,167.5894 378.3275,176.6195 366.3121,185.94 C377.4577,193.5987 379.2761,202.1151 366.2217,209.6817 C378.9931,216.5722 377.1595,228.3972 366.676,235.6937 C376.9546,244.3256 374.3938,251.5978 363.9707,257.6827 C378.3291,263.9756 379.0566,275.7983 366.9194,284.9558 C374.747,292.4911 375.8073,299.8259 365.1606,305.8025 C378.6796,313.9286 379.1437,326.5162 365.3904,334.8581 C373.7581,341.4826 373.7316,351.9763 362.7125,356.1642 C376.296,363.8469 378.3029,375.4359 363.4576,383.8827 C375.8852,397.2824 371.5324,407.7381 354.5,411.626 C356.7593,412.3111 357.6426,414.3997 355.9326,416.3011 C346.6229,429.2632 337.5074,428.5104 328.8092,415.6586 C321.1809,433.7405 308.9268,435.5568 295.6676,421.4575 C288.8185,438.9018 278.6341,441.1929 265.7849,427.1522 C254.026,439.9323 239.1258,439.0569 233.6582,420.6676 C226.3363,431.8111 213.0666,432.9045 206.9776,419.3363 C187.0744,437.0029 169.7153,431.1935 165.5,404.626 C167.3369,405.0679 167.7204,406.4225 166.7023,407.9097 C155.1674,399.3272 154.615,391.4421 166.4101,382.5904 C156.9703,375.9117 156.3977,364.9568 167.5069,359.2435 C154.7603,353.1026 153.9994,342.3597 163.4619,332.819 C151.2509,324.4926 153.0243,315.4131 163.3283,306.9704 C150.2915,299.4398 151.6199,290.3922 162.7677,282.3117 C151.4465,275.3272 153.1805,263.5644 164.9034,258.6607 C153.1209,251.3301 150.7578,243.5144 162.1996,233.671 C149.4089,223.6434 150.4363,213.8284 165.5354,207.3331 C155.3259,202.7153 154.5146,192.3912 163.5471,185.9815 C149.1836,178.218 151.1001,165.945 164.1749,158.8156 C151.4409,149.4494 154.1498,140.3172 165.9168,132.5775 C156.4732,126.2725 155.1706,117.7466 166.2336,111.7535 C152.5233,102.1587 154.6079,90.5392 168.5706,83.2102 C154.3972,71.4715 155.5718,58.6141 172.5,50.626 C173.7877,49.3736 174.8982,49.8917 175.5508,51.3427 " fill="#98FB98" filter="url(#f1nbe1f6013yey)" style="stroke:#000000;stroke-width:1.5;"/><text fill="#000000" font-family="sans-serif" font-size="14" font-weight="bold" lengthAdjust="spacing" textLength="99" x="214" y="70.5919">Hosting Cloud</text><!--MD5=[6d78cd334da2e8a5c3d30bb73e664b3d]
cluster Computing Cloud--><path d="M410.5464,233.2371 C418.8364,223.4168 426.6291,220.5237 434.6954,233.4743 C442.6187,217.2604 455.0783,217.1664 465.0362,231.4501 C471.292,221.2796 482.5034,220.1496 487.9355,232.2954 C496.1225,217.426 509.8412,218.4271 517.5659,232.7643 C525.8718,220.1073 534.8666,219.0873 544.1482,231.7395 C550.49,219.5875 558.9814,220.1506 566.956,230.0508 C575.5935,215.7415 587.234,217.9935 594.8867,231.0557 C599.2124,217.5009 611.2436,218.2382 618.771,227.739 C627.5431,215.9313 640.4037,219.0035 646.077,231.2558 C655.2002,219.4867 663.6648,219.8663 672.5207,231.5571 C679.6102,218.783 691.0013,217.913 699.9144,229.5072 C706.2947,217.8514 716.3141,218.5044 723.2522,228.9174 C734.2943,215.4656 746.1501,219.7851 753.2075,233.3376 C764.0298,221.2411 773.9158,220.8624 781.5,236.626 C783.6349,235.9186 784.7387,237.3722 784.3765,239.3255 C794.6067,245.3811 795.7612,255.7199 784.8102,262.1774 C797.4455,270.5712 799.6189,281.1809 786.4938,291.0755 C799.3143,297.824 801.2202,309.3313 787.5784,317.1793 C801.5359,322.5583 804.1786,331.9309 792.0525,342.0098 C804.7054,349.7711 802.0814,360.9523 789.6824,366.2657 C801.0339,371.106 802.0393,381.4645 792.9261,389.1993 C805.2932,397.0484 804.3021,409.8232 790.4633,415.189 C805.3699,425.9527 803.1741,435.2637 788.8797,444.4469 C798.7838,453.3079 799.0772,462.298 786.1538,468.5807 C799.3342,475.2143 800.3557,488.0247 786.9423,495.439 C796.9708,502.2549 797.6087,510.2122 787.8861,517.8595 C798.0468,533.1834 791.066,544.9305 774.5,548.626 C776.069,546.776 777.7415,547.414 778.6062,549.3832 C770.7947,562.0327 758.7058,562.9353 749.6328,550.8616 C743.2556,562.8073 732.0371,563.7337 723.2676,553.736 C716.5093,567.0609 706.6932,567.2316 696.9166,557.1313 C691.4265,569.3981 678.8607,569.8511 671.0776,559.7842 C663.7772,573.2356 651.7889,570.2659 645.8151,558.4575 C638.061,569.9161 627.133,573.2177 618.815,559.0517 C612.1372,572.8123 603.7215,573.7206 593.9331,562.1012 C586.7367,575.4028 574.5156,576.2504 566.1249,563.3696 C558.5176,573.9497 548.1635,572.135 544.1008,559.9417 C534.5448,572.5378 524.0029,572.0183 517.4994,557.0011 C507.6315,569.5741 497.3022,569.9485 487.5974,556.8115 C478.8554,568.3038 470.6214,568.4179 462.2412,556.4209 C453.6376,567.5182 440.8913,566.3655 436.567,552.0906 C419.4539,567.5084 407.4103,563.7488 401.5,541.626 C404.9895,540.5937 406.2131,542.0878 406.0827,545.4237 C391.5733,541.114 389.84,528.2038 400.7136,518.7792 C389.0572,511.1996 390.3551,498.6197 402.7859,492.9744 C391.2821,486.4832 390.072,476.7606 399.757,467.7274 C388.5442,461.2163 388.4734,448.8779 399.5822,442.2139 C386.9049,437.6036 382.4979,425.0705 393.672,415.235 C381.8998,407.7138 382.2307,400.9788 393.7128,393.5014 C383.4868,385.9869 382.1411,376.2384 393.4546,368.5015 C381.8414,358.0911 384.6784,349.1067 397.9554,343.1078 C384.7929,335.6778 385.8126,323.5761 398.2323,316.4115 C386.538,306.5426 385.9805,294.5942 401.3973,287.7155 C390.6885,279.7267 390.8205,268.2506 403.8906,262.6247 C387.9857,249.0579 388.938,238.2386 408.5,229.626 C410.9698,229.5781 411.6229,231.2753 410.5464,233.2371 " fill="#98FB98" filter="url(#f1nbe1f6013yey)" style="stroke:#000000;stroke-width:1.5;"/><text fill="#000000" font-family="sans-serif" font-size="14" font-weight="bold" lengthAdjust="spacing" textLength="122" x="530.5" y="249.5919">Computing Cloud</text><!--MD5=[c6ec95d939430381d5ac9a3fd4d4c5ec]
cluster Airflow--><polygon fill="#98FB98" filter="url(#f1nbe1f6013yey)" points="425.5,285.626,435.5,275.626,757.5,275.626,757.5,408.626,747.5,418.626,425.5,418.626,425.5,285.626" style="stroke:#000000;stroke-width:1.5;"/><line style="stroke:#000000;stroke-width:1.5;" x1="747.5" x2="757.5" y1="285.626" y2="275.626"/><line style="stroke:#000000;stroke-width:1.5;" x1="425.5" x2="747.5" y1="285.626" y2="285.626"/><line style="stroke:#000000;stroke-width:1.5;" x1="747.5" x2="747.5" y1="285.626" y2="418.626"/><text fill="#000000" font-family="sans-serif" font-size="14" font-style="italic" lengthAdjust="spacing" textLength="99" x="538" y="303.5919">«Job Scheduler»</text><text fill="#000000" font-family="sans-serif" font-size="14" font-weight="bold" lengthAdjust="spacing" textLength="50" x="562.5" y="322.6598">Airflow</text><!--MD5=[f1cf3fb06d9c27cdde3adee554c17d83]
entity RecSys--><polygon fill="#FEFECE" filter="url(#f1nbe1f6013yey)" points="173.5,90.626,183.5,80.626,353.5,80.626,353.5,138.7618,343.5,148.7618,173.5,148.7618,173.5,90.626" style="stroke:#000000;stroke-width:1.5;"/><line style="stroke:#000000;stroke-width:1.5;" x1="343.5" x2="353.5" y1="90.626" y2="80.626"/><line style="stroke:#000000;stroke-width:1.5;" x1="173.5" x2="343.5" y1="90.626" y2="90.626"/><line style="stroke:#000000;stroke-width:1.5;" x1="343.5" x2="343.5" y1="90.626" y2="148.7618"/><text fill="#000000" font-family="sans-serif" font-size="14" font-style="italic" lengthAdjust="spacing" textLength="140" x="188.5" y="115.5919">«Web App &amp; REST API»</text><text fill="#000000" font-family="sans-serif" font-size="14" lengthAdjust="spacing" textLength="46" x="235.5" y="134.6598">RecSys</text><!--MD5=[5e556deb794acf2448ea74dea781d331]
entity RecSysDB--><path d="M218,346.626 C218,336.626 260.5,336.626 260.5,336.626 C260.5,336.626 303,336.626 303,346.626 L303,393.7618 C303,403.7618 260.5,403.7618 260.5,403.7618 C260.5,403.7618 218,403.7618 218,393.7618 L218,346.626 " fill="#FEFECE" filter="url(#f1nbe1f6013yey)" style="stroke:#000000;stroke-width:1.5;"/><path d="M218,346.626 C218,356.626 260.5,356.626 260.5,356.626 C260.5,356.626 303,356.626 303,346.626 " fill="none" style="stroke:#000000;stroke-width:1.5;"/><text fill="#000000" font-family="sans-serif" font-size="14" font-style="italic" lengthAdjust="spacing" textLength="57" x="232" y="375.5919">«MySQL»</text><text fill="#000000" font-family="sans-serif" font-size="14" lengthAdjust="spacing" textLength="65" x="228" y="394.6598">RecSysDB</text><!--MD5=[9c62f3822deb3348eee1c2b41f08a327]
entity AirflowDB--><path d="M409.5,483.626 C409.5,473.626 452.5,473.626 452.5,473.626 C452.5,473.626 495.5,473.626 495.5,483.626 L495.5,530.7618 C495.5,540.7618 452.5,540.7618 452.5,540.7618 C452.5,540.7618 409.5,540.7618 409.5,530.7618 L409.5,483.626 " fill="#FEFECE" filter="url(#f1nbe1f6013yey)" style="stroke:#000000;stroke-width:1.5;"/><path d="M409.5,483.626 C409.5,493.626 452.5,493.626 452.5,493.626 C452.5,493.626 495.5,493.626 495.5,483.626 " fill="none" style="stroke:#000000;stroke-width:1.5;"/><text fill="#000000" font-family="sans-serif" font-size="14" font-style="italic" lengthAdjust="spacing" textLength="57" x="424" y="512.5919">«MySQL»</text><text fill="#000000" font-family="sans-serif" font-size="14" lengthAdjust="spacing" textLength="66" x="419.5" y="531.6598">AirflowDB</text><!--MD5=[90361f851fb8f9e2f3cda2ac50c7fb18]
entity SVDSimJob--><rect fill="#FEFECE" filter="url(#f1nbe1f6013yey)" height="49.0679" style="stroke:#A80036;stroke-width:1.5;" width="112" x="468.5" y="345.626"/><rect fill="#FEFECE" height="10" style="stroke:#A80036;stroke-width:1.5;" width="15" x="560.5" y="350.626"/><rect fill="#FEFECE" height="2" style="stroke:#A80036;stroke-width:1.5;" width="4" x="558.5" y="352.626"/><rect fill="#FEFECE" height="2" style="stroke:#A80036;stroke-width:1.5;" width="4" x="558.5" y="356.626"/><text fill="#000000" font-family="sans-serif" font-size="14" lengthAdjust="spacing" textLength="72" x="483.5" y="380.5919">SVDSimJob</text><!--MD5=[21fed7f49b82bf90a12b07f185f98931]
entity NFMSimJob--><rect fill="#FEFECE" filter="url(#f1nbe1f6013yey)" height="49.0679" style="stroke:#A80036;stroke-width:1.5;" width="117" x="616" y="345.626"/><rect fill="#FEFECE" height="10" style="stroke:#A80036;stroke-width:1.5;" width="15" x="713" y="350.626"/><rect fill="#FEFECE" height="2" style="stroke:#A80036;stroke-width:1.5;" width="4" x="711" y="352.626"/><rect fill="#FEFECE" height="2" style="stroke:#A80036;stroke-width:1.5;" width="4" x="711" y="356.626"/><text fill="#000000" font-family="sans-serif" font-size="14" lengthAdjust="spacing" textLength="77" x="631" y="380.5919">NFMSimJob</text><!--MD5=[fee662a292a0353a69bd162820bae93b]
entity User--><ellipse cx="21.5" cy="82.126" fill="#FEFECE" filter="url(#f1nbe1f6013yey)" rx="8" ry="8" style="stroke:#A80036;stroke-width:1.5;"/><path d="M21.5,90.126 L21.5,117.126 M8.5,98.126 L34.5,98.126 M21.5,117.126 L8.5,132.126 M21.5,117.126 L34.5,132.126 " fill="none" filter="url(#f1nbe1f6013yey)" style="stroke:#A80036;stroke-width:1.5;"/><text fill="#000000" font-family="sans-serif" font-size="14" lengthAdjust="spacing" textLength="31" x="6" y="152.5919">User</text><!--MD5=[8e80272686bf8ee4c0a4de13e7b074fe]
link User to RecSys--><path d="M37.38,114.626 C63.65,114.626 118.11,114.626 167.01,114.626 " fill="none" id="User-to-RecSys" style="stroke:#A80036;stroke-width:1.0;"/><polygon fill="#A80036" points="171.73,114.626,162.73,110.626,166.73,114.626,162.73,118.626,171.73,114.626" style="stroke:#A80036;stroke-width:1.0;"/><text fill="#000000" font-family="sans-serif" font-size="13" lengthAdjust="spacing" textLength="100" x="55.25" y="107.523">See &amp; Make Recs</text><!--MD5=[2b49650bb2a8f6575d051a5477690568]
link RecSys to SVDSimJob--><path d="M267.44,148.966 C271.66,168.816 280.41,192.596 298.5,205.626 C328.47,227.206 434.56,192.006 464.5,213.626 C504.86,242.766 518.07,302.976 522.4,339.326 " fill="none" id="RecSys-to-SVDSimJob" style="stroke:#0000FF;stroke-width:2.0;stroke-dasharray:1.0,3.0;"/><polygon fill="#0000FF" points="522.9,343.886,525.8728,334.4965,522.3431,338.9171,517.9225,335.3875,522.9,343.886" style="stroke:#0000FF;stroke-width:2.0;"/><text fill="#000000" font-family="sans-serif" font-size="13" lengthAdjust="spacing" textLength="72" x="299.5" y="201.523">Interactions</text><!--MD5=[086c672ebaef15ddbdfb53c1f792ea5c]
reverse link RecSys to SVDSimJob--><path d="M322.11,152.516 C359.45,175.756 402.62,202.036 412.5,205.626 C434.48,213.596 446.28,198.966 464.5,213.626 C505.3,246.466 518.4,310.596 522.57,345.366 " fill="none" id="RecSys-backto-SVDSimJob" style="stroke:#008000;stroke-width:2.0;stroke-dasharray:1.0,3.0;"/><polygon fill="#008000" points="317.93,149.916,323.4543,158.0696,322.174,152.5595,327.6841,151.2792,317.93,149.916" style="stroke:#008000;stroke-width:2.0;"/><text fill="#000000" font-family="sans-serif" font-size="13" lengthAdjust="spacing" textLength="103" x="413.5" y="201.523">Update Similarity</text><!--MD5=[3ba94c620e42bf06e4dae2d48aed7802]
link RecSys to NFMSimJob--><path d="M353.72,135.356 C403.98,147.606 467.19,165.116 521.5,186.626 C538.32,193.286 540.44,199.606 557.5,205.626 C575.01,211.806 583.77,202.326 598.5,213.626 C639.18,244.836 659.39,303.526 668.35,339.196 " fill="none" id="RecSys-to-NFMSimJob" style="stroke:#0000FF;stroke-width:2.0;stroke-dasharray:1.0,3.0;"/><polygon fill="#0000FF" points="669.44,343.676,671.1915,333.9841,668.2542,338.8186,663.4197,335.8813,669.44,343.676" style="stroke:#0000FF;stroke-width:2.0;"/><text fill="#000000" font-family="sans-serif" font-size="13" lengthAdjust="spacing" textLength="72" x="558.5" y="201.523">Interactions</text><!--MD5=[b459935fdb3aeee5bb621e11ea57618a]
reverse link RecSys to NFMSimJob--><path d="M360.08,122.106 C456.99,130.636 597.21,149.166 635.5,186.626 C678.69,228.886 679.65,306.426 676.99,345.416 " fill="none" id="RecSys-backto-NFMSimJob" style="stroke:#008000;stroke-width:2.0;stroke-dasharray:1.0,3.0;"/><polygon fill="#008000" points="355.27,121.686,363.8808,126.4666,360.2504,122.1284,364.5886,118.498,355.27,121.686" style="stroke:#008000;stroke-width:2.0;"/><text fill="#000000" font-family="sans-serif" font-size="13" lengthAdjust="spacing" textLength="103" x="648.5" y="201.523">Update Similarity</text><!--MD5=[fcc307838335f24abe53d6a401929d33]
link RecSys to RecSysDB--><path d="M263.03,155.236 C262.47,202.916 261.53,282.496 260.96,329.976 " fill="none" id="RecSys-RecSysDB" style="stroke:#A80036;stroke-width:1.0;stroke-dasharray:1.0,3.0;"/><polygon fill="#A80036" points="260.9,334.936,265.0282,325.994,260.9714,329.9365,257.029,325.8798,260.9,334.936" style="stroke:#A80036;stroke-width:1.0;"/><polygon fill="#A80036" points="263.09,150.536,258.9618,159.4779,263.0186,155.5355,266.961,159.5922,263.09,150.536" style="stroke:#A80036;stroke-width:1.0;"/><!--MD5=[3d5d886d45851009f6e6d929d7ee64a7]
link Airflow to AirflowDB--><path d="M440.2363,418.9858 C440.2588,419.1454 440.2813,419.3051 440.3038,419.465 C440.3488,419.7849 440.3939,420.1053 440.4391,420.4264 C441.1621,425.5632 441.9064,430.8519 442.6534,436.161 C444.1475,446.7791 445.6525,457.4785 447.02,467.206 " fill="none" id="Airflow-AirflowDB" style="stroke:#A80036;stroke-width:1.0;stroke-dasharray:1.0,3.0;"/><polygon fill="#A80036" points="447.67,471.816,450.3723,462.3451,446.9709,466.8651,442.4509,463.4637,447.67,471.816" style="stroke:#A80036;stroke-width:1.0;"/><polygon fill="#A80036" points="440.2363,418.9858,437.5298,428.4554,440.9332,423.937,445.4517,427.3404,440.2363,418.9858" style="stroke:#A80036;stroke-width:1.0;"/><!--MD5=[945761267efc289d4a42362a59a3c4f0]
@startuml
title Deployment

actor User

cloud "Hosting Cloud" #palegreen {
    node RecSys <<Web App & REST API>>
    database RecSysDB <<MySQL>>
}

cloud "Computing Cloud" #palegreen {
    node Airflow <<Job Scheduler>> {
        artifact [SVDSimJob]
        artifact [NFMSimJob]
    }
    database AirflowDB <<MySQL>>
}


User -r-> RecSys: See & Make Recs
RecSys -[#blue,dotted,thickness=2]-> SVDSimJob: Interactions
RecSys <-[#green,dotted,thickness=2]- SVDSimJob: Update Similarity
RecSys -[#blue,dotted,thickness=2]-> NFMSimJob: Interactions
RecSys <-[#green,dotted,thickness=2]- NFMSimJob: Update Similarity

RecSys <-[dotted,thickness=1]-> RecSysDB
Airflow <-[dotted,thickness=1]-> AirflowDB
@enduml

PlantUML version 1.2021.00(Sun Jan 10 07:25:05 ART 2021)
(MIT source distribution)
Java Runtime: OpenJDK Runtime Environment
JVM: OpenJDK 64-Bit Server VM
Default Encoding: UTF-8
Language: en
Country: US
--></g></svg>