<?xml version="1.0" encoding="UTF-8" standalone="no"?><svg xmlns="http://www.w3.org/2000/svg" xmlns:xlink="http://www.w3.org/1999/xlink" contentStyleType="text/css" height="570px" preserveAspectRatio="none" style="width:1018px;height:570px;background:#FFFFFF;" version="1.1" viewBox="0 0 1018 570" width="1018px" zoomAndPan="magnify"><defs/><g><text fill="#000000" font-family="sans-serif" font-size="14" font-weight="bold" lengthAdjust="spacing" textLength="96" x="454.0042" y="22.9951">Deployment</text><!--cluster Hosting Cloud--><g id="cluster_Hosting Cloud"><path d="M184.7602,67.2216 C190.3685,53.8172 201.0866,52.5597 209.8363,64.0584 C216.4353,51.0785 227.0762,52.6258 234.3057,63.4092 C241.4248,47.5841 253.2069,48.7928 263.7136,59.6797 C266.4029,48.2285 277.1606,44.5138 285.6031,53.5253 C295.291,43.2969 306.3031,43.6604 312.5911,57.3599 C323.8472,44.5578 334.9201,48.5757 339.951,63.5022 C349.4122,53.1141 358.5476,51.2146 365.5974,65.9626 C379.3308,51.662 387.979,56.3661 395.5,72.1397 C396.7007,70.5693 397.7636,70.4903 398.929,72.1768 C411.1437,79.9696 413.006,88.3243 399.7573,96.9679 C410.9714,105.205 411.1841,114.8047 398.3218,121.6411 C410.5954,126.8992 409.5607,135.0416 401.247,143.1053 C413.2752,149.9485 413.1748,161.8517 400.2913,167.7279 C412.7691,172.1799 411.5457,180.3758 403.9171,188.361 C417.1215,195.5412 415.335,207.7745 402.5479,213.5414 C415.0812,218.9048 417.2579,226.428 407.2928,236.4511 C416.9452,244.5901 418.4292,252.0944 406.1969,259.1781 C415.1124,268.7527 414.7311,277.1677 401.3497,282.0083 C411.1856,289.0341 410.4006,296.2059 401.5827,303.4345 C413.2816,311.585 413.7489,321.6975 401.2202,329.5112 C412.4099,336.2446 410.5899,343.8887 401.3598,350.7563 C414.4425,360.0171 413.9664,367.7194 400.366,375.9268 C410.8059,388.7927 404.6452,401.0423 388.5,401.6397 C388.8211,401.5283 388.9712,401.6367 388.9227,401.9819 C384.0271,413.3856 374.0248,416.7089 365.6861,405.5235 C357.2848,417.9142 347.488,418.7318 338.0436,406.7044 C331.4192,416.6262 321.8293,418.5168 315.4515,406.4511 C306.6075,419.6934 297.3116,420.6958 288.6324,406.2912 C280.1474,421.3944 270.6288,418.1624 261.3692,407.0982 C252.1397,416.793 243.5591,419.2738 236.2613,405.0689 C228.1769,417.4713 216.0733,417.9439 209.9628,403.1595 C195.8415,416.3621 181.296,415.113 175.5,394.6397 C177.2536,393.9437 178.4217,395.0699 178.1289,396.83 C166.1002,390.4339 164.7989,381.5128 176.5308,373.4898 C166.283,366.5848 164.7322,358.0397 175.0133,349.8185 C163.1624,342.0033 163.0927,334.6912 175.1939,327.0661 C163.5885,320.6904 165.4391,311.0021 175.1839,304.6169 C164.765,297.432 165.6346,289.1536 175.6268,282.3752 C164.4557,276.849 165.2724,265.499 175.0799,259.4719 C161.7136,253.8084 163.3485,241.8341 174.3976,235.4764 C162.8992,228.4344 162.1487,216.9952 175.0539,210.5968 C164.8023,204.852 163.6143,196.5517 172.4483,188.5511 C160.9532,180.8846 160.7805,171.1424 173.6522,164.7062 C166.6904,156.7211 167.1422,148.8967 177.8117,144.55 C164.6275,139.3292 164.849,127.9797 175.4422,120.4236 C165.2732,114.3237 165.3997,104.3653 174.874,97.7726 C161.0318,83.5662 163.2671,71.6167 182.5,65.1397 C184.2573,64.5906 185.1999,65.3856 184.7602,67.2216 " fill="#98FB98" style="stroke:#181818;stroke-width:1.0;"/><text fill="#000000" font-family="sans-serif" font-size="14" font-weight="bold" lengthAdjust="spacing" textLength="113" x="229" y="83.1348">Hosting Cloud</text></g><!--cluster Computing Cloud--><g id="cluster_Computing Cloud"><path d="M447.999,235.5028 C459.176,216.5273 473.9673,220.6061 484.9704,235.6915 C496.2555,217.4071 509.559,218.0417 522.3733,234.0224 C529.5424,211.795 549.8899,213.4608 562.0945,228.6812 C572.6793,212.2982 586.66,209.5435 599.61,225.9773 C613.0105,209.3661 629.0154,206.0529 639.6436,228.7974 C648.9569,214.7297 657.9809,209.0292 671.083,224.8062 C682.8962,203.1628 695.2339,203.2678 711.1297,220.6127 C724.5698,203.2661 740.442,205.8331 748.0919,226.2761 C762.5421,206.5387 779.0749,210.8151 790.0964,229.9782 C800.0544,208.8623 815.4761,208.053 828.5477,226.989 C838.8338,209.4658 855.0622,213.0937 863.1775,229.2229 C876.0733,210.1285 892.786,211.7512 901.2789,233.3458 C915.2092,215.1754 928.8771,216.9209 940.5729,235.7208 C954.0747,218.0244 972.5684,219.139 982.5,239.6397 C985.2855,239.5067 986.5786,241.19 985.4839,243.824 C1001.3257,255.169 1001.9526,268.6272 986.7153,281.0016 C1005.3417,288.2907 1006.6931,305.5194 992.4529,317.9168 C1008.416,329.9001 1002.6977,343.7731 987.3209,350.8766 C1005.9332,358.0384 1006.4997,375.8628 991.0488,386.5811 C1011.0084,399.684 1006.9056,413.1691 989.3055,424.5473 C1005.7186,437.1768 1005.9624,447.6881 987.6844,458.6695 C1003.4675,469.6427 1007.6195,483.8758 988.2836,495.4216 C1003.3941,511.4984 998.1314,530.8653 975.5,534.6397 C978.006,533.695 979.646,534.5329 979.2857,537.4497 C969.8141,552.4348 952.3049,554.6241 943.6132,536.6066 C935.2069,559.0723 916.1289,559.3805 902.8921,541.4795 C890.3943,563.0772 873.8432,559.6556 862.8211,540.0445 C854.1994,556.6139 838.8515,554.1777 829.3585,541.0254 C816.5746,561.0721 798.0038,554.6818 789.5945,536.4778 C780.0474,555.7821 763.9707,557.1457 750.6823,540.5308 C740.9795,560.888 728.2372,561.7623 714.7465,544.1124 C699.3657,562.8895 682.5851,558.3854 673.3928,537.6376 C661.5962,555.2394 646.5119,556.7854 635.3682,536.974 C622.2607,553.1586 610.6079,555.0175 597.3444,537.1481 C589.7116,554.816 571.9956,554.8313 561.5136,540.3207 C550.4816,554.6947 535.2447,554.6794 524.967,539.3914 C509.687,560.5746 494.6858,558.6319 482.5904,536.2909 C462.7206,553.5031 447.5698,552.8845 435.5,527.6397 C438.9939,528.285 440.2694,530.9733 438.1201,533.9585 C421.1442,523.7489 417.9981,505.7686 437.5162,494.9934 C416.4773,488.4704 415.6324,469.8411 431.1678,457.1781 C417.6411,449.6972 414.6826,434.5274 428.8835,425.0737 C409.8724,415.0956 411.0213,400.7402 427.1914,389.107 C410.7224,378.5986 407.102,359.0879 428.4384,349.7782 C410.7906,336.3701 410.3666,323.9013 430.7662,312.8945 C418.2216,301.4147 416.2428,288.5779 434.386,280.5305 C415.1662,263.666 420.1828,242.4667 442.5,232.6397 C445.2387,230.9877 448.0606,231.7763 447.999,235.5028 " fill="#98FB98" style="stroke:#181818;stroke-width:1.0;"/><text fill="#000000" font-family="sans-serif" font-size="14" font-weight="bold" lengthAdjust="spacing" textLength="138" x="640" y="250.6348">Computing Cloud</text></g><!--cluster Airflow--><g id="cluster_Airflow"><polygon fill="#FEFECE" points="459.5,285.6397,469.5,275.6397,958.5,275.6397,958.5,399.6397,948.5,409.6397,459.5,409.6397,459.5,285.6397" style="stroke:#181818;stroke-width:1.0;"/><line style="stroke:#181818;stroke-width:1.0;" x1="948.5" x2="958.5" y1="285.6397" y2="275.6397"/><line style="stroke:#181818;stroke-width:1.0;" x1="459.5" x2="948.5" y1="285.6397" y2="285.6397"/><line style="stroke:#181818;stroke-width:1.0;" x1="948.5" x2="948.5" y1="285.6397" y2="409.6397"/><text fill="#000000" font-family="sans-serif" font-size="14" font-style="italic" lengthAdjust="spacing" textLength="116" x="647" y="301.6348">«Job Scheduler»</text><text fill="#000000" font-family="sans-serif" font-size="14" font-weight="bold" lengthAdjust="spacing" textLength="58" x="676" y="317.9317">Airflow</text></g><!--entity RecSys--><g id="elem_RecSys"><polygon fill="#F1F1F1" points="183.5,102.1397,193.5,92.1397,387.5,92.1397,387.5,144.7334,377.5,154.7334,183.5,154.7334,183.5,102.1397" style="stroke:#181818;stroke-width:0.5;"/><line style="stroke:#181818;stroke-width:0.5;" x1="377.5" x2="387.5" y1="102.1397" y2="92.1397"/><line style="stroke:#181818;stroke-width:0.5;" x1="183.5" x2="377.5" y1="102.1397" y2="102.1397"/><line style="stroke:#181818;stroke-width:0.5;" x1="377.5" x2="377.5" y1="102.1397" y2="154.7334"/><text fill="#000000" font-family="sans-serif" font-size="14" font-style="italic" lengthAdjust="spacing" textLength="164" x="198.5" y="125.1348">«Web App &amp; REST API»</text><text fill="#000000" font-family="sans-serif" font-size="14" lengthAdjust="spacing" textLength="51" x="255" y="141.4317">RecSys</text></g><!--entity RecSysDB--><g id="elem_RecSysDB"><path d="M198.5,341.6397 C198.5,331.6397 244.5,331.6397 244.5,331.6397 C244.5,331.6397 290.5,331.6397 290.5,341.6397 L290.5,383.2334 C290.5,393.2334 244.5,393.2334 244.5,393.2334 C244.5,393.2334 198.5,393.2334 198.5,383.2334 L198.5,341.6397 " fill="#F1F1F1" style="stroke:#181818;stroke-width:0.5;"/><path d="M198.5,341.6397 C198.5,351.6397 244.5,351.6397 244.5,351.6397 C244.5,351.6397 290.5,351.6397 290.5,341.6397 " fill="none" style="stroke:#181818;stroke-width:0.5;"/><text fill="#000000" font-family="sans-serif" font-size="14" font-style="italic" lengthAdjust="spacing" textLength="66" x="211.5" y="368.6348">«MySQL»</text><text fill="#000000" font-family="sans-serif" font-size="14" lengthAdjust="spacing" textLength="72" x="208.5" y="384.9317">RecSysDB</text></g><!--entity AirflowDB--><g id="elem_AirflowDB"><path d="M444,474.6397 C444,464.6397 489.5,464.6397 489.5,464.6397 C489.5,464.6397 535,464.6397 535,474.6397 L535,516.2334 C535,526.2334 489.5,526.2334 489.5,526.2334 C489.5,526.2334 444,526.2334 444,516.2334 L444,474.6397 " fill="#F1F1F1" style="stroke:#181818;stroke-width:0.5;"/><path d="M444,474.6397 C444,484.6397 489.5,484.6397 489.5,484.6397 C489.5,484.6397 535,484.6397 535,474.6397 " fill="none" style="stroke:#181818;stroke-width:0.5;"/><text fill="#000000" font-family="sans-serif" font-size="14" font-style="italic" lengthAdjust="spacing" textLength="66" x="456.5" y="501.6348">«MySQL»</text><text fill="#000000" font-family="sans-serif" font-size="14" lengthAdjust="spacing" textLength="71" x="454" y="517.9317">AirflowDB</text></g><!--entity SVDSimJob--><g id="elem_SVDSimJob"><rect fill="#F1F1F1" height="46.2969" rx="2.5" ry="2.5" style="stroke:#181818;stroke-width:0.5;" width="120" x="502.5" y="339.6397"/><rect fill="#F1F1F1" height="10" style="stroke:#181818;stroke-width:0.5;" width="15" x="602.5" y="344.6397"/><rect fill="#F1F1F1" height="2" style="stroke:#181818;stroke-width:0.5;" width="4" x="600.5" y="346.6397"/><rect fill="#F1F1F1" height="2" style="stroke:#181818;stroke-width:0.5;" width="4" x="600.5" y="350.6397"/><text fill="#000000" font-family="sans-serif" font-size="14" lengthAdjust="spacing" textLength="80" x="517.5" y="372.6348">SVDSimJob</text></g><!--entity NFMSimJob--><g id="elem_NFMSimJob"><rect fill="#F1F1F1" height="46.2969" rx="2.5" ry="2.5" style="stroke:#181818;stroke-width:0.5;" width="120" x="657.5" y="339.6397"/><rect fill="#F1F1F1" height="10" style="stroke:#181818;stroke-width:0.5;" width="15" x="757.5" y="344.6397"/><rect fill="#F1F1F1" height="2" style="stroke:#181818;stroke-width:0.5;" width="4" x="755.5" y="346.6397"/><rect fill="#F1F1F1" height="2" style="stroke:#181818;stroke-width:0.5;" width="4" x="755.5" y="350.6397"/><text fill="#000000" font-family="sans-serif" font-size="14" lengthAdjust="spacing" textLength="80" x="672.5" y="372.6348">NFMSimJob</text></g><!--entity BertSimJob--><g id="elem_BertSimJob"><rect fill="#F1F1F1" height="46.2969" rx="2.5" ry="2.5" style="stroke:#181818;stroke-width:0.5;" width="122" x="812.5" y="339.6397"/><rect fill="#F1F1F1" height="10" style="stroke:#181818;stroke-width:0.5;" width="15" x="914.5" y="344.6397"/><rect fill="#F1F1F1" height="2" style="stroke:#181818;stroke-width:0.5;" width="4" x="912.5" y="346.6397"/><rect fill="#F1F1F1" height="2" style="stroke:#181818;stroke-width:0.5;" width="4" x="912.5" y="350.6397"/><text fill="#000000" font-family="sans-serif" font-size="14" lengthAdjust="spacing" textLength="82" x="827.5" y="372.6348">BertSimJob</text></g><!--entity User--><g id="elem_User"><ellipse cx="21.5" cy="94.1397" fill="#F1F1F1" rx="8" ry="8" style="stroke:#181818;stroke-width:0.5;"/><path d="M21.5,102.1397 L21.5,129.1397 M8.5,110.1397 L34.5,110.1397 M21.5,129.1397 L8.5,144.1397 M21.5,129.1397 L34.5,144.1397 " fill="none" style="stroke:#181818;stroke-width:0.5;"/><text fill="#000000" font-family="sans-serif" font-size="14" lengthAdjust="spacing" textLength="31" x="6" y="158.6348">User</text></g><!--link User to RecSys--><g id="link_User_RecSys"><path d="M37.2238,123.6397 C64.8604,123.6397 124.326,123.6397 178.131,123.6397 " fill="none" id="User-to-RecSys" style="stroke:#181818;stroke-width:1.0;"/><polygon fill="#181818" points="183.319,123.6397,174.319,119.6397,178.319,123.6397,174.319,127.6397,183.319,123.6397" style="stroke:#181818;stroke-width:1.0;"/><text fill="#000000" font-family="sans-serif" font-size="13" lengthAdjust="spacing" textLength="110" x="55.25" y="116.7066">See &amp; Make Recs</text></g><!--link RecSys to SVDSimJob--><g id="link_RecSys_SVDSimJob"><path d="M274.565,155.3177 C270.332,173.2017 269.235,194.8747 282.5,208.6397 C299.165,225.9337 478.625,203.1567 498.5,216.6397 C537.947,243.4007 553.314,300.3407 559.126,334.3617 " fill="none" id="RecSys-to-SVDSimJob" style="stroke:#0000FF;stroke-width:2.0;stroke-dasharray:1.0,3.0;"/><polygon fill="#0000FF" points="559.979,339.6167,562.4875,330.0926,559.179,334.6811,554.5906,331.3726,559.979,339.6167" style="stroke:#0000FF;stroke-width:2.0;"/><text fill="#000000" font-family="sans-serif" font-size="13" lengthAdjust="spacing" textLength="75" x="283.5" y="204.7066">Interactions</text></g><!--reverse link RecSys to SVDSimJob--><g id="link_RecSys_SVDSimJob"><path d="M320.846,158.7637 C341.931,176.9167 370.235,197.6967 399.5,208.6397 C420.174,216.3697 480.509,203.8537 498.5,216.6397 C539.321,245.6517 554.447,306.6997 559.781,339.5697 " fill="none" id="RecSys-backto-SVDSimJob" style="stroke:#008000;stroke-width:2.0;stroke-dasharray:1.0,3.0;"/><polygon fill="#008000" points="316.994,155.4077,321.1507,164.3364,320.7633,158.6928,326.4069,158.3054,316.994,155.4077" style="stroke:#008000;stroke-width:2.0;"/><text fill="#000000" font-family="sans-serif" font-size="13" lengthAdjust="spacing" textLength="113" x="400.5" y="204.7066">Update SimMatrix</text></g><!--link RecSys to NFMSimJob--><g id="link_RecSys_NFMSimJob"><path d="M387.586,150.1607 C428.741,161.4377 476.359,175.7497 518.5,191.6397 C535.056,197.8827 537.435,203.9627 554.5,208.6397 C572.798,213.6547 623.688,206.1547 639.5,216.6397 C680.656,243.9317 701.786,300.4217 711.176,334.2737 " fill="none" id="RecSys-to-NFMSimJob" style="stroke:#0000FF;stroke-width:2.0;stroke-dasharray:1.0,3.0;"/><polygon fill="#0000FF" points="712.584,339.5037,714.1067,329.7732,711.2841,334.6756,706.3818,331.853,712.584,339.5037" style="stroke:#0000FF;stroke-width:2.0;"/><text fill="#000000" font-family="sans-serif" font-size="13" lengthAdjust="spacing" textLength="75" x="555.5" y="204.7066">Interactions</text></g><!--reverse link RecSys to NFMSimJob--><g id="link_RecSys_NFMSimJob"><path d="M392.755,134.5687 C481.254,144.6517 598.128,162.9187 635.5,191.6397 C684.085,228.9787 705.444,302.4777 713.429,339.3847 " fill="none" id="RecSys-backto-NFMSimJob" style="stroke:#008000;stroke-width:2.0;stroke-dasharray:1.0,3.0;"/><polygon fill="#008000" points="387.767,134.0057,396.261,138.9909,392.7354,134.5671,397.1592,131.0415,387.767,134.0057" style="stroke:#008000;stroke-width:2.0;"/><text fill="#000000" font-family="sans-serif" font-size="13" lengthAdjust="spacing" textLength="113" x="652.5" y="204.7066">Update SimMatrix</text></g><!--link RecSys to BertSimJob--><g id="link_RecSys_BertSimJob"><path d="M387.517,130.0137 C510.836,137.9807 709.882,155.9897 774.5,191.6397 C828.734,221.5607 855.811,294.4057 866.991,334.3417 " fill="none" id="RecSys-to-BertSimJob" style="stroke:#0000FF;stroke-width:2.0;stroke-dasharray:1.0,3.0;"/><polygon fill="#0000FF" points="868.401,339.5147,869.894,329.7796,867.0864,334.6906,862.1754,331.883,868.401,339.5147" style="stroke:#0000FF;stroke-width:2.0;"/><text fill="#000000" font-family="sans-serif" font-size="13" lengthAdjust="spacing" textLength="75" x="796.5" y="204.7066">Interactions</text></g><!--reverse link RecSys to BertSimJob--><g id="link_RecSys_BertSimJob"><path d="M392.983,129.1127 C555.586,136.9977 848.657,156.0097 880.5,191.6397 C917.014,232.4957 896.936,303.4027 883.108,339.3577 " fill="none" id="RecSys-backto-BertSimJob" style="stroke:#008000;stroke-width:2.0;stroke-dasharray:1.0,3.0;"/><polygon fill="#008000" points="387.733,128.8597,396.5306,133.287,392.7272,129.0997,396.9146,125.2963,387.733,128.8597" style="stroke:#008000;stroke-width:2.0;"/><text fill="#000000" font-family="sans-serif" font-size="13" lengthAdjust="spacing" textLength="113" x="891.5" y="204.7066">Update SimMatrix</text></g><!--link RecSys to RecSysDB--><g id="link_RecSys_RecSysDB"><path d="M262.648,159.8767 C257.34,169.7717 252.398,180.7987 249.5,191.6397 C237.362,237.0437 238.385,291.7067 240.895,326.5627 " fill="none" id="RecSys-RecSysDB" style="stroke:#181818;stroke-width:1.0;stroke-dasharray:1.0,3.0;"/><polygon fill="#181818" points="265.107,155.4147,257.26,161.3665,262.6938,159.7938,264.2666,165.2276,265.107,155.4147" style="stroke:#181818;stroke-width:1.0;"/><polygon fill="#181818" points="241.275,331.5577,244.5821,322.2806,240.8964,326.572,236.6051,322.8864,241.275,331.5577" style="stroke:#181818;stroke-width:1.0;"/></g><!--link Airflow to AirflowDB--><g id="link_Airflow_AirflowDB"><path d="M475.2606,409.8489 C475.2872,410.0071 475.3138,410.1656 475.3404,410.3241 C475.3937,410.6413 475.4471,410.9591 475.5005,411.2775 C475.6075,411.9143 475.7148,412.5535 475.8226,413.195 C476.6843,418.3263 477.5694,423.5967 478.4549,428.8694 C480.2259,439.4148 481.9985,449.9695 483.589,459.4401 " fill="none" id="Airflow-AirflowDB" style="stroke:#181818;stroke-width:1.0;stroke-dasharray:1.0,3.0;"/><polygon fill="#181818" points="475.2606,409.8489,472.8065,419.3871,476.0887,414.7798,480.696,418.0621,475.2606,409.8489" style="stroke:#181818;stroke-width:1.0;"/><polygon fill="#181818" points="484.427,464.4315,486.881,454.8932,483.5988,459.5005,478.9915,456.2183,484.427,464.4315" style="stroke:#181818;stroke-width:1.0;"/></g><!--SRC=[dLB1JW8n4BttAoQGU8A37Wbkmh9BnBX6gUY1SEZk3j3GRJTjDqeC_suXQrq58c5katclxythM6u5GeIbK9i2fIM4PLPfc1hKX6H2LJcqxfInN2vXk6jRq2wPmAL6bF19m9LKES84CxenqE-_OGg3ieGhcCJq1GPFuo3Omt9cMShCDpGA7JZPqES7DzzwiQ4gokf_kG7N2w7UtHFtAWMQhJ2l1EeWWFOe7iN3k0RlYcdB5sulcD7NYFB2CUP7Xe-ZvFGmH6sRq-tlbMexVtSYknoXgxj1lNGFAAAB9c7hVGw6rBbrP-rKLDZ9bRMOT-oAPsk9njpUp1tP- -x1M5hKpX9NqfFxZhrFw2YzoPwMpZA2QnDcDVyuJzudSv5yWtqWJyupy9F-HGwQzDCMt2C7xEkv_xee9FxeJY7z6Nm1]--></g></svg>