<?xml version="1.0" encoding="UTF-8" standalone="no"?><svg xmlns="http://www.w3.org/2000/svg" xmlns:xlink="http://www.w3.org/1999/xlink" contentStyleType="text/css" height="1116px" preserveAspectRatio="none" style="width:979px;height:1116px;background:#FFFFFF;" version="1.1" viewBox="0 0 979 1116" width="979px" zoomAndPan="magnify"><defs/><g><!--class RecommenderEnsempleEvaluation--><g id="elem_RecommenderEnsempleEvaluation"><rect codeLine="1" fill="#F1F1F1" height="96.8906" id="RecommenderEnsempleEvaluation" rx="2.5" ry="2.5" style="stroke:#181818;stroke-width:0.5;" width="283" x="55.5" y="254.5"/><ellipse cx="70.5" cy="270.5" fill="#ADD1B2" rx="11" ry="11" style="stroke:#181818;stroke-width:1.0;"/><path d="M72.8438,266.1719 C71.9063,265.7344 71.3125,265.5938 70.4375,265.5938 C67.8125,265.5938 65.8125,267.6719 65.8125,270.3906 L65.8125,271.5156 C65.8125,274.0938 67.9219,275.9844 70.8125,275.9844 C72.0313,275.9844 73.1875,275.6875 73.9375,275.1406 C74.5156,274.7344 74.8438,274.2813 74.8438,273.8906 C74.8438,273.4375 74.4531,273.0469 73.9844,273.0469 C73.7656,273.0469 73.5625,273.125 73.375,273.3125 C72.9219,273.7969 72.9219,273.7969 72.7344,273.8906 C72.3125,274.1563 71.625,274.2813 70.8594,274.2813 C68.8125,274.2813 67.5156,273.1875 67.5156,271.4844 L67.5156,270.3906 C67.5156,268.6094 68.7656,267.2969 70.5,267.2969 C71.0781,267.2969 71.6875,267.4531 72.1563,267.7031 C72.6406,267.9844 72.8125,268.2031 72.9063,268.6094 C72.9688,269.0156 73,269.1406 73.1406,269.2656 C73.2813,269.4063 73.5156,269.5156 73.7344,269.5156 C74,269.5156 74.2656,269.375 74.4375,269.1563 C74.5469,269 74.5781,268.8125 74.5781,268.3906 L74.5781,266.9688 C74.5781,266.5313 74.5625,266.4063 74.4688,266.25 C74.3125,265.9844 74.0313,265.8438 73.7344,265.8438 C73.4375,265.8438 73.2344,265.9375 73.0156,266.25 L72.8438,266.1719 Z " fill="#000000"/><text fill="#000000" font-family="sans-serif" font-size="14" lengthAdjust="spacing" textLength="251" x="84.5" y="275.3467">RecommenderEnsempleEvaluation</text><line style="stroke:#181818;stroke-width:0.5;" x1="56.5" x2="337.5" y1="286.5" y2="286.5"/><rect fill="none" height="6" style="stroke:#C82930;stroke-width:1.0;" width="6" x="63.5" y="297.1484"/><text fill="#000000" font-family="sans-serif" font-size="14" lengthAdjust="spacing" textLength="42" x="75.5" y="303.4951">id: int</text><rect fill="none" height="6" style="stroke:#C82930;stroke-width:1.0;" width="6" x="63.5" y="313.4453"/><text fill="#000000" font-family="sans-serif" font-size="14" lengthAdjust="spacing" textLength="90" x="75.5" y="319.792">enable: bool</text><rect fill="none" height="6" style="stroke:#C82930;stroke-width:1.0;" width="6" x="63.5" y="329.7422"/><text fill="#000000" font-family="sans-serif" font-size="14" lengthAdjust="spacing" textLength="257" x="75.5" y="336.0889">ensemble: RecommenderEnsemble</text><line style="stroke:#181818;stroke-width:0.5;" x1="56.5" x2="337.5" y1="343.3906" y2="343.3906"/></g><!--class RecommenderEnsempleEvaluationMetric--><g id="elem_RecommenderEnsempleEvaluationMetric"><rect codeLine="7" fill="#F1F1F1" height="96.8906" id="RecommenderEnsempleEvaluationMetric" rx="2.5" ry="2.5" style="stroke:#181818;stroke-width:0.5;" width="360" x="7" y="518"/><ellipse cx="35.95" cy="534" fill="#ADD1B2" rx="11" ry="11" style="stroke:#181818;stroke-width:1.0;"/><path d="M38.2938,529.6719 C37.3563,529.2344 36.7625,529.0938 35.8875,529.0938 C33.2625,529.0938 31.2625,531.1719 31.2625,533.8906 L31.2625,535.0156 C31.2625,537.5938 33.3719,539.4844 36.2625,539.4844 C37.4813,539.4844 38.6375,539.1875 39.3875,538.6406 C39.9656,538.2344 40.2938,537.7813 40.2938,537.3906 C40.2938,536.9375 39.9031,536.5469 39.4344,536.5469 C39.2156,536.5469 39.0125,536.625 38.825,536.8125 C38.3719,537.2969 38.3719,537.2969 38.1844,537.3906 C37.7625,537.6563 37.075,537.7813 36.3094,537.7813 C34.2625,537.7813 32.9656,536.6875 32.9656,534.9844 L32.9656,533.8906 C32.9656,532.1094 34.2156,530.7969 35.95,530.7969 C36.5281,530.7969 37.1375,530.9531 37.6063,531.2031 C38.0906,531.4844 38.2625,531.7031 38.3563,532.1094 C38.4188,532.5156 38.45,532.6406 38.5906,532.7656 C38.7313,532.9063 38.9656,533.0156 39.1844,533.0156 C39.45,533.0156 39.7156,532.875 39.8875,532.6563 C39.9969,532.5 40.0281,532.3125 40.0281,531.8906 L40.0281,530.4688 C40.0281,530.0313 40.0125,529.9063 39.9188,529.75 C39.7625,529.4844 39.4813,529.3438 39.1844,529.3438 C38.8875,529.3438 38.6844,529.4375 38.4656,529.75 L38.2938,529.6719 Z " fill="#000000"/><text fill="#000000" font-family="sans-serif" font-size="14" lengthAdjust="spacing" textLength="297" x="53.05" y="538.8467">RecommenderEnsempleEvaluationMetric</text><line style="stroke:#181818;stroke-width:0.5;" x1="8" x2="366" y1="550" y2="550"/><rect fill="none" height="6" style="stroke:#C82930;stroke-width:1.0;" width="6" x="15" y="560.6484"/><text fill="#000000" font-family="sans-serif" font-size="14" lengthAdjust="spacing" textLength="334" x="27" y="566.9951">evaluation: RecommenderEnsempleEvaluation</text><rect fill="none" height="6" style="stroke:#C82930;stroke-width:1.0;" width="6" x="15" y="576.9453"/><text fill="#000000" font-family="sans-serif" font-size="14" lengthAdjust="spacing" textLength="70" x="27" y="583.292">user: User</text><rect fill="none" height="6" style="stroke:#C82930;stroke-width:1.0;" width="6" x="15" y="593.2422"/><text fill="#000000" font-family="sans-serif" font-size="14" lengthAdjust="spacing" textLength="80" x="27" y="599.5889">value: float</text><line style="stroke:#181818;stroke-width:0.5;" x1="8" x2="366" y1="606.8906" y2="606.8906"/></g><!--class RecommenderEnsemble--><g id="elem_RecommenderEnsemble"><rect codeLine="66" fill="#F1F1F1" height="145.7813" id="RecommenderEnsemble" rx="2.5" ry="2.5" style="stroke:#181818;stroke-width:0.5;" width="463" x="202.5" y="7"/><ellipse cx="341.25" cy="23" fill="#ADD1B2" rx="11" ry="11" style="stroke:#181818;stroke-width:1.0;"/><path d="M343.5938,18.6719 C342.6563,18.2344 342.0625,18.0938 341.1875,18.0938 C338.5625,18.0938 336.5625,20.1719 336.5625,22.8906 L336.5625,24.0156 C336.5625,26.5938 338.6719,28.4844 341.5625,28.4844 C342.7813,28.4844 343.9375,28.1875 344.6875,27.6406 C345.2656,27.2344 345.5938,26.7813 345.5938,26.3906 C345.5938,25.9375 345.2031,25.5469 344.7344,25.5469 C344.5156,25.5469 344.3125,25.625 344.125,25.8125 C343.6719,26.2969 343.6719,26.2969 343.4844,26.3906 C343.0625,26.6563 342.375,26.7813 341.6094,26.7813 C339.5625,26.7813 338.2656,25.6875 338.2656,23.9844 L338.2656,22.8906 C338.2656,21.1094 339.5156,19.7969 341.25,19.7969 C341.8281,19.7969 342.4375,19.9531 342.9063,20.2031 C343.3906,20.4844 343.5625,20.7031 343.6563,21.1094 C343.7188,21.5156 343.75,21.6406 343.8906,21.7656 C344.0313,21.9063 344.2656,22.0156 344.4844,22.0156 C344.75,22.0156 345.0156,21.875 345.1875,21.6563 C345.2969,21.5 345.3281,21.3125 345.3281,20.8906 L345.3281,19.4688 C345.3281,19.0313 345.3125,18.9063 345.2188,18.75 C345.0625,18.4844 344.7813,18.3438 344.4844,18.3438 C344.1875,18.3438 343.9844,18.4375 343.7656,18.75 L343.5938,18.6719 Z " fill="#000000"/><text fill="#000000" font-family="sans-serif" font-size="14" lengthAdjust="spacing" textLength="177" x="361.75" y="27.8467">RecommenderEnsemble</text><line style="stroke:#181818;stroke-width:0.5;" x1="203.5" x2="664.5" y1="39" y2="39"/><rect fill="none" height="6" style="stroke:#C82930;stroke-width:1.0;" width="6" x="210.5" y="49.6484"/><text fill="#000000" font-family="sans-serif" font-size="14" lengthAdjust="spacing" textLength="42" x="222.5" y="55.9951">id: str</text><rect fill="none" height="6" style="stroke:#C82930;stroke-width:1.0;" width="6" x="210.5" y="65.9453"/><text fill="#000000" font-family="sans-serif" font-size="14" lengthAdjust="spacing" textLength="69" x="222.5" y="72.292">name: str</text><rect fill="none" height="6" style="stroke:#C82930;stroke-width:1.0;" width="6" x="210.5" y="82.2422"/><text fill="#000000" font-family="sans-serif" font-size="14" lengthAdjust="spacing" textLength="111" x="222.5" y="88.5889">description: str</text><rect fill="none" height="6" style="stroke:#C82930;stroke-width:1.0;" width="6" x="210.5" y="98.5391"/><text fill="#000000" font-family="sans-serif" font-size="14" lengthAdjust="spacing" textLength="88" x="222.5" y="104.8857">position: int</text><rect fill="none" height="6" style="stroke:#C82930;stroke-width:1.0;" width="6" x="210.5" y="114.8359"/><text fill="#000000" font-family="sans-serif" font-size="14" lengthAdjust="spacing" textLength="90" x="222.5" y="121.1826">enable: bool</text><rect fill="none" height="6" style="stroke:#C82930;stroke-width:1.0;" width="6" x="210.5" y="131.1328"/><text fill="#000000" font-family="sans-serif" font-size="14" lengthAdjust="spacing" textLength="437" x="222.5" y="137.4795">recommenderConfigs: List&lt;RecommenderEnsembleConfig&gt;</text><line style="stroke:#181818;stroke-width:0.5;" x1="203.5" x2="664.5" y1="144.7813" y2="144.7813"/></g><!--class Recommender--><g id="elem_Recommender"><rect codeLine="17" fill="#F1F1F1" height="227.2656" id="Recommender" rx="2.5" ry="2.5" style="stroke:#181818;stroke-width:0.5;" width="309" x="402.5" y="453"/><ellipse cx="499.75" cy="469" fill="#ADD1B2" rx="11" ry="11" style="stroke:#181818;stroke-width:1.0;"/><path d="M502.0938,464.6719 C501.1563,464.2344 500.5625,464.0938 499.6875,464.0938 C497.0625,464.0938 495.0625,466.1719 495.0625,468.8906 L495.0625,470.0156 C495.0625,472.5938 497.1719,474.4844 500.0625,474.4844 C501.2813,474.4844 502.4375,474.1875 503.1875,473.6406 C503.7656,473.2344 504.0938,472.7813 504.0938,472.3906 C504.0938,471.9375 503.7031,471.5469 503.2344,471.5469 C503.0156,471.5469 502.8125,471.625 502.625,471.8125 C502.1719,472.2969 502.1719,472.2969 501.9844,472.3906 C501.5625,472.6563 500.875,472.7813 500.1094,472.7813 C498.0625,472.7813 496.7656,471.6875 496.7656,469.9844 L496.7656,468.8906 C496.7656,467.1094 498.0156,465.7969 499.75,465.7969 C500.3281,465.7969 500.9375,465.9531 501.4063,466.2031 C501.8906,466.4844 502.0625,466.7031 502.1563,467.1094 C502.2188,467.5156 502.25,467.6406 502.3906,467.7656 C502.5313,467.9063 502.7656,468.0156 502.9844,468.0156 C503.25,468.0156 503.5156,467.875 503.6875,467.6563 C503.7969,467.5 503.8281,467.3125 503.8281,466.8906 L503.8281,465.4688 C503.8281,465.0313 503.8125,464.9063 503.7188,464.75 C503.5625,464.4844 503.2813,464.3438 502.9844,464.3438 C502.6875,464.3438 502.4844,464.4375 502.2656,464.75 L502.0938,464.6719 Z " fill="#000000"/><text fill="#000000" font-family="sans-serif" font-size="14" lengthAdjust="spacing" textLength="106" x="520.25" y="473.8467">Recommender</text><line style="stroke:#181818;stroke-width:0.5;" x1="403.5" x2="710.5" y1="485" y2="485"/><rect fill="none" height="6" style="stroke:#C82930;stroke-width:1.0;" width="6" x="410.5" y="495.6484"/><text fill="#000000" font-family="sans-serif" font-size="14" lengthAdjust="spacing" textLength="42" x="422.5" y="501.9951">id: int</text><rect fill="none" height="6" style="stroke:#C82930;stroke-width:1.0;" width="6" x="410.5" y="511.9453"/><text fill="#000000" font-family="sans-serif" font-size="14" lengthAdjust="spacing" textLength="185" x="422.5" y="518.292">type: RecommenderType</text><rect fill="none" height="6" style="stroke:#C82930;stroke-width:1.0;" width="6" x="410.5" y="528.2422"/><text fill="#000000" font-family="sans-serif" font-size="14" lengthAdjust="spacing" textLength="69" x="422.5" y="534.5889">name: str</text><rect fill="none" height="6" style="stroke:#C82930;stroke-width:1.0;" width="6" x="410.5" y="544.5391"/><text fill="#000000" font-family="sans-serif" font-size="14" lengthAdjust="spacing" textLength="111" x="422.5" y="550.8857">description: str</text><rect fill="none" height="6" style="stroke:#C82930;stroke-width:1.0;" width="6" x="410.5" y="560.8359"/><text fill="#000000" font-family="sans-serif" font-size="14" lengthAdjust="spacing" textLength="88" x="422.5" y="567.1826">position: int</text><rect fill="none" height="6" style="stroke:#C82930;stroke-width:1.0;" width="6" x="410.5" y="577.1328"/><text fill="#000000" font-family="sans-serif" font-size="14" lengthAdjust="spacing" textLength="90" x="422.5" y="583.4795">enable: bool</text><rect fill="none" height="6" style="stroke:#C82930;stroke-width:1.0;" width="6" x="410.5" y="593.4297"/><text fill="#000000" font-family="sans-serif" font-size="14" lengthAdjust="spacing" textLength="279" x="422.5" y="599.7764">user_similarity_matrix: SimilarityMatrix</text><rect fill="none" height="6" style="stroke:#C82930;stroke-width:1.0;" width="6" x="410.5" y="609.7266"/><text fill="#000000" font-family="sans-serif" font-size="14" lengthAdjust="spacing" textLength="283" x="422.5" y="616.0732">item_similarity_matrix: SimilarityMatrix</text><rect fill="none" height="6" style="stroke:#C82930;stroke-width:1.0;" width="6" x="410.5" y="626.0234"/><text fill="#000000" font-family="sans-serif" font-size="14" lengthAdjust="spacing" textLength="157" x="422.5" y="632.3701">max_similar_users: int</text><rect fill="none" height="6" style="stroke:#C82930;stroke-width:1.0;" width="6" x="410.5" y="642.3203"/><text fill="#000000" font-family="sans-serif" font-size="14" lengthAdjust="spacing" textLength="161" x="422.5" y="648.667">max_similar_items: int</text><rect fill="none" height="6" style="stroke:#C82930;stroke-width:1.0;" width="6" x="410.5" y="658.6172"/><text fill="#000000" font-family="sans-serif" font-size="14" lengthAdjust="spacing" textLength="223" x="422.5" y="664.9639">max_items_by_similar_user: int</text><line style="stroke:#181818;stroke-width:0.5;" x1="403.5" x2="710.5" y1="672.2656" y2="672.2656"/></g><!--class RecommenderType--><g id="elem_RecommenderType"><rect codeLine="31" fill="#F1F1F1" height="113.1875" id="RecommenderType" rx="2.5" ry="2.5" style="stroke:#181818;stroke-width:0.5;" width="212" x="366" y="773.5"/><ellipse cx="398.1" cy="789.5" fill="#EB937F" rx="11" ry="11" style="stroke:#181818;stroke-width:1.0;"/><path d="M396.8969,790.375 L398.35,790.375 L398.35,790.4844 C398.35,790.8906 398.3813,791.0469 398.4594,791.2031 C398.6156,791.4531 398.8969,791.6094 399.1938,791.6094 C399.4438,791.6094 399.7094,791.4688 399.8656,791.25 C399.9906,791.0938 400.0219,790.9375 400.0219,790.4844 L400.0219,788.5625 C400.0219,788.4063 400.0219,788.3594 400.0063,788.2031 C399.9438,787.7344 399.6313,787.4219 399.1781,787.4219 C398.9281,787.4219 398.6625,787.5625 398.4906,787.7813 C398.3813,787.9531 398.35,788.1094 398.35,788.5625 L398.35,788.6875 L396.8969,788.6875 L396.8969,786.2813 L400.8813,786.2813 L400.8813,787.1406 C400.8813,787.5469 400.9125,787.7188 400.9906,787.875 C401.1625,788.125 401.4438,788.2813 401.725,788.2813 C401.9906,788.2813 402.2563,788.1406 402.4281,787.9219 C402.5375,787.75 402.5688,787.6094 402.5688,787.1406 L402.5688,784.5938 L394.9438,784.5938 C394.5063,784.5938 394.3813,784.6094 394.225,784.7031 C393.975,784.8594 393.8188,785.1563 393.8188,785.4375 C393.8188,785.7188 393.9594,785.9688 394.1781,786.1406 C394.3344,786.25 394.5219,786.2813 394.9438,786.2813 L395.1938,786.2813 L395.1938,792.7969 L394.9438,792.7969 C394.5375,792.7969 394.3813,792.8125 394.225,792.9219 C393.975,793.0938 393.8188,793.3594 393.8188,793.6563 C393.8188,793.9219 393.9594,794.1719 394.1781,794.3281 C394.3188,794.4531 394.5531,794.5 394.9438,794.5 L402.9438,794.5 L402.9438,791.9219 C402.9438,791.4844 402.9125,791.3438 402.8344,791.1875 C402.6625,790.9375 402.3813,790.7813 402.1,790.7813 C401.8344,790.7813 401.5688,790.8906 401.3969,791.1406 C401.2875,791.2969 401.2563,791.4375 401.2563,791.9219 L401.2563,792.7969 L396.8969,792.7969 L396.8969,790.375 Z " fill="#000000"/><text fill="#000000" font-family="sans-serif" font-size="14" lengthAdjust="spacing" textLength="142" x="415.9" y="794.3467">RecommenderType</text><line style="stroke:#181818;stroke-width:0.5;" x1="367" x2="577" y1="805.5" y2="805.5"/><text fill="#000000" font-family="sans-serif" font-size="14" lengthAdjust="spacing" textLength="75" x="372" y="822.4951">POPULARS</text><text fill="#000000" font-family="sans-serif" font-size="14" lengthAdjust="spacing" textLength="115" x="372" y="838.792">NEW_POPULARS</text><text fill="#000000" font-family="sans-serif" font-size="14" lengthAdjust="spacing" textLength="103" x="372" y="855.0889">USER_PROFILE</text><text fill="#000000" font-family="sans-serif" font-size="14" lengthAdjust="spacing" textLength="200" x="372" y="871.3857">COLLAVORATIVE_FILTERING</text><line style="stroke:#181818;stroke-width:0.5;" x1="367" x2="577" y1="878.6875" y2="878.6875"/></g><!--class SimilarityMatrix--><g id="elem_SimilarityMatrix"><rect codeLine="40" fill="#F1F1F1" height="145.7813" id="SimilarityMatrix" rx="2.5" ry="2.5" style="stroke:#181818;stroke-width:0.5;" width="255" x="613.5" y="757"/><ellipse cx="680.25" cy="773" fill="#ADD1B2" rx="11" ry="11" style="stroke:#181818;stroke-width:1.0;"/><path d="M682.5938,768.6719 C681.6563,768.2344 681.0625,768.0938 680.1875,768.0938 C677.5625,768.0938 675.5625,770.1719 675.5625,772.8906 L675.5625,774.0156 C675.5625,776.5938 677.6719,778.4844 680.5625,778.4844 C681.7813,778.4844 682.9375,778.1875 683.6875,777.6406 C684.2656,777.2344 684.5938,776.7813 684.5938,776.3906 C684.5938,775.9375 684.2031,775.5469 683.7344,775.5469 C683.5156,775.5469 683.3125,775.625 683.125,775.8125 C682.6719,776.2969 682.6719,776.2969 682.4844,776.3906 C682.0625,776.6563 681.375,776.7813 680.6094,776.7813 C678.5625,776.7813 677.2656,775.6875 677.2656,773.9844 L677.2656,772.8906 C677.2656,771.1094 678.5156,769.7969 680.25,769.7969 C680.8281,769.7969 681.4375,769.9531 681.9063,770.2031 C682.3906,770.4844 682.5625,770.7031 682.6563,771.1094 C682.7188,771.5156 682.75,771.6406 682.8906,771.7656 C683.0313,771.9063 683.2656,772.0156 683.4844,772.0156 C683.75,772.0156 684.0156,771.875 684.1875,771.6563 C684.2969,771.5 684.3281,771.3125 684.3281,770.8906 L684.3281,769.4688 C684.3281,769.0313 684.3125,768.9063 684.2188,768.75 C684.0625,768.4844 683.7813,768.3438 683.4844,768.3438 C683.1875,768.3438 682.9844,768.4375 682.7656,768.75 L682.5938,768.6719 Z " fill="#000000"/><text fill="#000000" font-family="sans-serif" font-size="14" lengthAdjust="spacing" textLength="113" x="700.75" y="777.8467">SimilarityMatrix</text><line style="stroke:#181818;stroke-width:0.5;" x1="614.5" x2="867.5" y1="789" y2="789"/><rect fill="none" height="6" style="stroke:#C82930;stroke-width:1.0;" width="6" x="621.5" y="799.6484"/><text fill="#000000" font-family="sans-serif" font-size="14" lengthAdjust="spacing" textLength="42" x="633.5" y="805.9951">id: int</text><rect fill="none" height="6" style="stroke:#C82930;stroke-width:1.0;" width="6" x="621.5" y="815.9453"/><text fill="#000000" font-family="sans-serif" font-size="14" lengthAdjust="spacing" textLength="69" x="633.5" y="822.292">name: str</text><rect fill="none" height="6" style="stroke:#C82930;stroke-width:1.0;" width="6" x="621.5" y="832.2422"/><text fill="#000000" font-family="sans-serif" font-size="14" lengthAdjust="spacing" textLength="192" x="633.5" y="838.5889">type: SimilarityMatrixType</text><rect fill="none" height="6" style="stroke:#C82930;stroke-width:1.0;" width="6" x="621.5" y="848.5391"/><text fill="#000000" font-family="sans-serif" font-size="14" lengthAdjust="spacing" textLength="111" x="633.5" y="854.8857">description: str</text><rect fill="none" height="6" style="stroke:#C82930;stroke-width:1.0;" width="6" x="621.5" y="864.8359"/><text fill="#000000" font-family="sans-serif" font-size="14" lengthAdjust="spacing" textLength="229" x="633.5" y="871.1826">cells: List&lt;SimilarityMatrixCell&gt;</text><line style="stroke:#181818;stroke-width:0.5;" x1="614.5" x2="867.5" y1="878.4844" y2="878.4844"/><rect fill="#F24D5C" height="6" style="stroke:#C82930;stroke-width:1.0;" width="6" x="621.5" y="889.1328"/><text fill="#000000" font-family="sans-serif" font-size="14" lengthAdjust="spacing" textLength="181" x="633.5" y="895.4795">version: int (Last version)</text></g><!--class SimilarityMatrixType--><g id="elem_SimilarityMatrixType"><rect codeLine="52" fill="#F1F1F1" height="80.5938" id="SimilarityMatrixType" rx="2.5" ry="2.5" style="stroke:#181818;stroke-width:0.5;" width="181" x="538.5" y="996.5"/><ellipse cx="553.5" cy="1012.5" fill="#EB937F" rx="11" ry="11" style="stroke:#181818;stroke-width:1.0;"/><path d="M552.2969,1013.375 L553.75,1013.375 L553.75,1013.4844 C553.75,1013.8906 553.7813,1014.0469 553.8594,1014.2031 C554.0156,1014.4531 554.2969,1014.6094 554.5938,1014.6094 C554.8438,1014.6094 555.1094,1014.4688 555.2656,1014.25 C555.3906,1014.0938 555.4219,1013.9375 555.4219,1013.4844 L555.4219,1011.5625 C555.4219,1011.4063 555.4219,1011.3594 555.4063,1011.2031 C555.3438,1010.7344 555.0313,1010.4219 554.5781,1010.4219 C554.3281,1010.4219 554.0625,1010.5625 553.8906,1010.7813 C553.7813,1010.9531 553.75,1011.1094 553.75,1011.5625 L553.75,1011.6875 L552.2969,1011.6875 L552.2969,1009.2813 L556.2813,1009.2813 L556.2813,1010.1406 C556.2813,1010.5469 556.3125,1010.7188 556.3906,1010.875 C556.5625,1011.125 556.8438,1011.2813 557.125,1011.2813 C557.3906,1011.2813 557.6563,1011.1406 557.8281,1010.9219 C557.9375,1010.75 557.9688,1010.6094 557.9688,1010.1406 L557.9688,1007.5938 L550.3438,1007.5938 C549.9063,1007.5938 549.7813,1007.6094 549.625,1007.7031 C549.375,1007.8594 549.2188,1008.1563 549.2188,1008.4375 C549.2188,1008.7188 549.3594,1008.9688 549.5781,1009.1406 C549.7344,1009.25 549.9219,1009.2813 550.3438,1009.2813 L550.5938,1009.2813 L550.5938,1015.7969 L550.3438,1015.7969 C549.9375,1015.7969 549.7813,1015.8125 549.625,1015.9219 C549.375,1016.0938 549.2188,1016.3594 549.2188,1016.6563 C549.2188,1016.9219 549.3594,1017.1719 549.5781,1017.3281 C549.7188,1017.4531 549.9531,1017.5 550.3438,1017.5 L558.3438,1017.5 L558.3438,1014.9219 C558.3438,1014.4844 558.3125,1014.3438 558.2344,1014.1875 C558.0625,1013.9375 557.7813,1013.7813 557.5,1013.7813 C557.2344,1013.7813 556.9688,1013.8906 556.7969,1014.1406 C556.6875,1014.2969 556.6563,1014.4375 556.6563,1014.9219 L556.6563,1015.7969 L552.2969,1015.7969 L552.2969,1013.375 Z " fill="#000000"/><text fill="#000000" font-family="sans-serif" font-size="14" lengthAdjust="spacing" textLength="149" x="567.5" y="1017.3467">SimilarityMatrixType</text><line style="stroke:#181818;stroke-width:0.5;" x1="539.5" x2="718.5" y1="1028.5" y2="1028.5"/><text fill="#000000" font-family="sans-serif" font-size="14" lengthAdjust="spacing" textLength="102" x="544.5" y="1045.4951">ITEM_TO_ITEM</text><text fill="#000000" font-family="sans-serif" font-size="14" lengthAdjust="spacing" textLength="108" x="544.5" y="1061.792">USER_TO_USER</text><line style="stroke:#181818;stroke-width:0.5;" x1="539.5" x2="718.5" y1="1069.0938" y2="1069.0938"/></g><!--class SimilarityMatrixCell--><g id="elem_SimilarityMatrixCell"><rect codeLine="57" fill="#F1F1F1" height="145.7813" id="SimilarityMatrixCell" rx="2.5" ry="2.5" style="stroke:#181818;stroke-width:0.5;" width="195" x="754.5" y="964"/><ellipse cx="779.85" cy="980" fill="#ADD1B2" rx="11" ry="11" style="stroke:#181818;stroke-width:1.0;"/><path d="M782.1938,975.6719 C781.2563,975.2344 780.6625,975.0938 779.7875,975.0938 C777.1625,975.0938 775.1625,977.1719 775.1625,979.8906 L775.1625,981.0156 C775.1625,983.5938 777.2719,985.4844 780.1625,985.4844 C781.3813,985.4844 782.5375,985.1875 783.2875,984.6406 C783.8656,984.2344 784.1938,983.7813 784.1938,983.3906 C784.1938,982.9375 783.8031,982.5469 783.3344,982.5469 C783.1156,982.5469 782.9125,982.625 782.725,982.8125 C782.2719,983.2969 782.2719,983.2969 782.0844,983.3906 C781.6625,983.6563 780.975,983.7813 780.2094,983.7813 C778.1625,983.7813 776.8656,982.6875 776.8656,980.9844 L776.8656,979.8906 C776.8656,978.1094 778.1156,976.7969 779.85,976.7969 C780.4281,976.7969 781.0375,976.9531 781.5063,977.2031 C781.9906,977.4844 782.1625,977.7031 782.2563,978.1094 C782.3188,978.5156 782.35,978.6406 782.4906,978.7656 C782.6313,978.9063 782.8656,979.0156 783.0844,979.0156 C783.35,979.0156 783.6156,978.875 783.7875,978.6563 C783.8969,978.5 783.9281,978.3125 783.9281,977.8906 L783.9281,976.4688 C783.9281,976.0313 783.9125,975.9063 783.8188,975.75 C783.6625,975.4844 783.3813,975.3438 783.0844,975.3438 C782.7875,975.3438 782.5844,975.4375 782.3656,975.75 L782.1938,975.6719 Z " fill="#000000"/><text fill="#000000" font-family="sans-serif" font-size="14" lengthAdjust="spacing" textLength="140" x="796.15" y="984.8467">SimilarityMatrixCell</text><line style="stroke:#181818;stroke-width:0.5;" x1="755.5" x2="948.5" y1="996" y2="996"/><rect fill="none" height="6" style="stroke:#C82930;stroke-width:1.0;" width="6" x="762.5" y="1006.6484"/><text fill="#000000" font-family="sans-serif" font-size="14" lengthAdjust="spacing" textLength="42" x="774.5" y="1012.9951">id: int</text><rect fill="none" height="6" style="stroke:#C82930;stroke-width:1.0;" width="6" x="762.5" y="1022.9453"/><text fill="#000000" font-family="sans-serif" font-size="14" lengthAdjust="spacing" textLength="169" x="774.5" y="1029.292">matrix: SimilarityMatrix</text><rect fill="none" height="6" style="stroke:#C82930;stroke-width:1.0;" width="6" x="762.5" y="1039.2422"/><text fill="#000000" font-family="sans-serif" font-size="14" lengthAdjust="spacing" textLength="55" x="774.5" y="1045.5889">row: int</text><rect fill="none" height="6" style="stroke:#C82930;stroke-width:1.0;" width="6" x="762.5" y="1055.5391"/><text fill="#000000" font-family="sans-serif" font-size="14" lengthAdjust="spacing" textLength="81" x="774.5" y="1061.8857">column: int</text><rect fill="none" height="6" style="stroke:#C82930;stroke-width:1.0;" width="6" x="762.5" y="1071.8359"/><text fill="#000000" font-family="sans-serif" font-size="14" lengthAdjust="spacing" textLength="80" x="774.5" y="1078.1826">value: float</text><rect fill="none" height="6" style="stroke:#C82930;stroke-width:1.0;" width="6" x="762.5" y="1088.1328"/><text fill="#000000" font-family="sans-serif" font-size="14" lengthAdjust="spacing" textLength="81" x="774.5" y="1094.4795">version: int</text><line style="stroke:#181818;stroke-width:0.5;" x1="755.5" x2="948.5" y1="1101.7813" y2="1101.7813"/></g><!--class RecommenderEnsembleConfig--><g id="elem_RecommenderEnsembleConfig"><rect codeLine="75" fill="#F1F1F1" height="145.7813" id="RecommenderEnsembleConfig" rx="2.5" ry="2.5" style="stroke:#181818;stroke-width:0.5;" width="283" x="392.5" y="230"/><ellipse cx="419.65" cy="246" fill="#ADD1B2" rx="11" ry="11" style="stroke:#181818;stroke-width:1.0;"/><path d="M421.9938,241.6719 C421.0563,241.2344 420.4625,241.0938 419.5875,241.0938 C416.9625,241.0938 414.9625,243.1719 414.9625,245.8906 L414.9625,247.0156 C414.9625,249.5938 417.0719,251.4844 419.9625,251.4844 C421.1813,251.4844 422.3375,251.1875 423.0875,250.6406 C423.6656,250.2344 423.9938,249.7813 423.9938,249.3906 C423.9938,248.9375 423.6031,248.5469 423.1344,248.5469 C422.9156,248.5469 422.7125,248.625 422.525,248.8125 C422.0719,249.2969 422.0719,249.2969 421.8844,249.3906 C421.4625,249.6563 420.775,249.7813 420.0094,249.7813 C417.9625,249.7813 416.6656,248.6875 416.6656,246.9844 L416.6656,245.8906 C416.6656,244.1094 417.9156,242.7969 419.65,242.7969 C420.2281,242.7969 420.8375,242.9531 421.3063,243.2031 C421.7906,243.4844 421.9625,243.7031 422.0563,244.1094 C422.1188,244.5156 422.15,244.6406 422.2906,244.7656 C422.4313,244.9063 422.6656,245.0156 422.8844,245.0156 C423.15,245.0156 423.4156,244.875 423.5875,244.6563 C423.6969,244.5 423.7281,244.3125 423.7281,243.8906 L423.7281,242.4688 C423.7281,242.0313 423.7125,241.9063 423.6188,241.75 C423.4625,241.4844 423.1813,241.3438 422.8844,241.3438 C422.5875,241.3438 422.3844,241.4375 422.1656,241.75 L421.9938,241.6719 Z " fill="#000000"/><text fill="#000000" font-family="sans-serif" font-size="14" lengthAdjust="spacing" textLength="224" x="436.35" y="250.8467">RecommenderEnsembleConfig</text><line style="stroke:#181818;stroke-width:0.5;" x1="393.5" x2="674.5" y1="262" y2="262"/><rect fill="none" height="6" style="stroke:#C82930;stroke-width:1.0;" width="6" x="400.5" y="272.6484"/><text fill="#000000" font-family="sans-serif" font-size="14" lengthAdjust="spacing" textLength="42" x="412.5" y="278.9951">id: int</text><rect fill="none" height="6" style="stroke:#C82930;stroke-width:1.0;" width="6" x="400.5" y="288.9453"/><text fill="#000000" font-family="sans-serif" font-size="14" lengthAdjust="spacing" textLength="257" x="412.5" y="295.292">ensemble: RecommenderEnsemble</text><rect fill="none" height="6" style="stroke:#C82930;stroke-width:1.0;" width="6" x="400.5" y="305.2422"/><text fill="#000000" font-family="sans-serif" font-size="14" lengthAdjust="spacing" textLength="217" x="412.5" y="311.5889">recommender: Recommender</text><rect fill="none" height="6" style="stroke:#C82930;stroke-width:1.0;" width="6" x="400.5" y="321.5391"/><text fill="#000000" font-family="sans-serif" font-size="14" lengthAdjust="spacing" textLength="245" x="412.5" y="327.8857">active_from_n_user_iterations: int</text><rect fill="none" height="6" style="stroke:#C82930;stroke-width:1.0;" width="6" x="400.5" y="337.8359"/><text fill="#000000" font-family="sans-serif" font-size="14" lengthAdjust="spacing" textLength="226" x="412.5" y="344.1826">active_to_n_user_iterations: int</text><rect fill="none" height="6" style="stroke:#C82930;stroke-width:1.0;" width="6" x="400.5" y="354.1328"/><text fill="#000000" font-family="sans-serif" font-size="14" lengthAdjust="spacing" textLength="170" x="412.5" y="360.4795">n_items_by_session: int</text><line style="stroke:#181818;stroke-width:0.5;" x1="393.5" x2="674.5" y1="367.7813" y2="367.7813"/></g><!--class Interaction--><g id="elem_Interaction"><rect codeLine="93" fill="#F1F1F1" height="113.1875" id="Interaction" rx="2.5" ry="2.5" style="stroke:#181818;stroke-width:0.5;" width="112" x="840" y="23.5"/><ellipse cx="855" cy="39.5" fill="#ADD1B2" rx="11" ry="11" style="stroke:#181818;stroke-width:1.0;"/><path d="M857.3438,35.1719 C856.4063,34.7344 855.8125,34.5938 854.9375,34.5938 C852.3125,34.5938 850.3125,36.6719 850.3125,39.3906 L850.3125,40.5156 C850.3125,43.0938 852.4219,44.9844 855.3125,44.9844 C856.5313,44.9844 857.6875,44.6875 858.4375,44.1406 C859.0156,43.7344 859.3438,43.2813 859.3438,42.8906 C859.3438,42.4375 858.9531,42.0469 858.4844,42.0469 C858.2656,42.0469 858.0625,42.125 857.875,42.3125 C857.4219,42.7969 857.4219,42.7969 857.2344,42.8906 C856.8125,43.1563 856.125,43.2813 855.3594,43.2813 C853.3125,43.2813 852.0156,42.1875 852.0156,40.4844 L852.0156,39.3906 C852.0156,37.6094 853.2656,36.2969 855,36.2969 C855.5781,36.2969 856.1875,36.4531 856.6563,36.7031 C857.1406,36.9844 857.3125,37.2031 857.4063,37.6094 C857.4688,38.0156 857.5,38.1406 857.6406,38.2656 C857.7813,38.4063 858.0156,38.5156 858.2344,38.5156 C858.5,38.5156 858.7656,38.375 858.9375,38.1563 C859.0469,38 859.0781,37.8125 859.0781,37.3906 L859.0781,35.9688 C859.0781,35.5313 859.0625,35.4063 858.9688,35.25 C858.8125,34.9844 858.5313,34.8438 858.2344,34.8438 C857.9375,34.8438 857.7344,34.9375 857.5156,35.25 L857.3438,35.1719 Z " fill="#000000"/><text fill="#000000" font-family="sans-serif" font-size="14" lengthAdjust="spacing" textLength="80" x="869" y="44.3467">Interaction</text><line style="stroke:#181818;stroke-width:0.5;" x1="841" x2="951" y1="55.5" y2="55.5"/><rect fill="none" height="6" style="stroke:#C82930;stroke-width:1.0;" width="6" x="848" y="66.1484"/><text fill="#000000" font-family="sans-serif" font-size="14" lengthAdjust="spacing" textLength="42" x="860" y="72.4951">id: int</text><rect fill="none" height="6" style="stroke:#C82930;stroke-width:1.0;" width="6" x="848" y="82.4453"/><text fill="#000000" font-family="sans-serif" font-size="14" lengthAdjust="spacing" textLength="77" x="860" y="88.792">item: Item</text><rect fill="none" height="6" style="stroke:#C82930;stroke-width:1.0;" width="6" x="848" y="98.7422"/><text fill="#000000" font-family="sans-serif" font-size="14" lengthAdjust="spacing" textLength="70" x="860" y="105.0889">user: User</text><rect fill="none" height="6" style="stroke:#C82930;stroke-width:1.0;" width="6" x="848" y="115.0391"/><text fill="#000000" font-family="sans-serif" font-size="14" lengthAdjust="spacing" textLength="86" x="860" y="121.3857">rating: float</text><line style="stroke:#181818;stroke-width:0.5;" x1="841" x2="951" y1="128.6875" y2="128.6875"/></g><!--class Item--><g id="elem_Item"><rect codeLine="105" fill="#F1F1F1" height="178.375" id="Item" rx="2.5" ry="2.5" style="stroke:#181818;stroke-width:0.5;" width="143" x="731.5" y="214"/><ellipse cx="781.75" cy="230" fill="#ADD1B2" rx="11" ry="11" style="stroke:#181818;stroke-width:1.0;"/><path d="M784.0938,225.6719 C783.1563,225.2344 782.5625,225.0938 781.6875,225.0938 C779.0625,225.0938 777.0625,227.1719 777.0625,229.8906 L777.0625,231.0156 C777.0625,233.5938 779.1719,235.4844 782.0625,235.4844 C783.2813,235.4844 784.4375,235.1875 785.1875,234.6406 C785.7656,234.2344 786.0938,233.7813 786.0938,233.3906 C786.0938,232.9375 785.7031,232.5469 785.2344,232.5469 C785.0156,232.5469 784.8125,232.625 784.625,232.8125 C784.1719,233.2969 784.1719,233.2969 783.9844,233.3906 C783.5625,233.6563 782.875,233.7813 782.1094,233.7813 C780.0625,233.7813 778.7656,232.6875 778.7656,230.9844 L778.7656,229.8906 C778.7656,228.1094 780.0156,226.7969 781.75,226.7969 C782.3281,226.7969 782.9375,226.9531 783.4063,227.2031 C783.8906,227.4844 784.0625,227.7031 784.1563,228.1094 C784.2188,228.5156 784.25,228.6406 784.3906,228.7656 C784.5313,228.9063 784.7656,229.0156 784.9844,229.0156 C785.25,229.0156 785.5156,228.875 785.6875,228.6563 C785.7969,228.5 785.8281,228.3125 785.8281,227.8906 L785.8281,226.4688 C785.8281,226.0313 785.8125,225.9063 785.7188,225.75 C785.5625,225.4844 785.2813,225.3438 784.9844,225.3438 C784.6875,225.3438 784.4844,225.4375 784.2656,225.75 L784.0938,225.6719 Z " fill="#000000"/><text fill="#000000" font-family="sans-serif" font-size="14" lengthAdjust="spacing" textLength="34" x="802.25" y="234.8467">Item</text><line style="stroke:#181818;stroke-width:0.5;" x1="732.5" x2="873.5" y1="246" y2="246"/><rect fill="none" height="6" style="stroke:#C82930;stroke-width:1.0;" width="6" x="739.5" y="256.6484"/><text fill="#000000" font-family="sans-serif" font-size="14" lengthAdjust="spacing" textLength="42" x="751.5" y="262.9951">id: int</text><rect fill="none" height="6" style="stroke:#C82930;stroke-width:1.0;" width="6" x="739.5" y="272.9453"/><text fill="#000000" font-family="sans-serif" font-size="14" lengthAdjust="spacing" textLength="71" x="751.5" y="279.292">name: Str</text><rect fill="none" height="6" style="stroke:#C82930;stroke-width:1.0;" width="6" x="739.5" y="289.2422"/><text fill="#000000" font-family="sans-serif" font-size="14" lengthAdjust="spacing" textLength="113" x="751.5" y="295.5889">description: Str</text><rect fill="none" height="6" style="stroke:#C82930;stroke-width:1.0;" width="6" x="739.5" y="305.5391"/><text fill="#000000" font-family="sans-serif" font-size="14" lengthAdjust="spacing" textLength="80" x="751.5" y="311.8857">image: URL</text><rect fill="none" height="6" style="stroke:#C82930;stroke-width:1.0;" width="6" x="739.5" y="321.8359"/><text fill="#000000" font-family="sans-serif" font-size="14" lengthAdjust="spacing" textLength="117" x="751.5" y="328.1826">popularity: float</text><rect fill="none" height="6" style="stroke:#C82930;stroke-width:1.0;" width="6" x="739.5" y="338.1328"/><text fill="#000000" font-family="sans-serif" font-size="14" lengthAdjust="spacing" textLength="86" x="751.5" y="344.4795">rating: float</text><rect fill="none" height="6" style="stroke:#C82930;stroke-width:1.0;" width="6" x="739.5" y="354.4297"/><text fill="#000000" font-family="sans-serif" font-size="14" lengthAdjust="spacing" textLength="83" x="751.5" y="360.7764">votes: float</text><rect fill="none" height="6" style="stroke:#C82930;stroke-width:1.0;" width="6" x="739.5" y="370.7266"/><text fill="#000000" font-family="sans-serif" font-size="14" lengthAdjust="spacing" textLength="114" x="751.5" y="377.0732">tags: List&lt;Tag&gt;</text><line style="stroke:#181818;stroke-width:0.5;" x1="732.5" x2="873.5" y1="384.375" y2="384.375"/></g><!--class User--><g id="elem_User"><rect fill="#F1F1F1" height="48" id="User" rx="2.5" ry="2.5" style="stroke:#181818;stroke-width:0.5;" width="63" x="909.5" y="279"/><ellipse cx="924.5" cy="295" fill="#ADD1B2" rx="11" ry="11" style="stroke:#181818;stroke-width:1.0;"/><path d="M926.8438,290.6719 C925.9063,290.2344 925.3125,290.0938 924.4375,290.0938 C921.8125,290.0938 919.8125,292.1719 919.8125,294.8906 L919.8125,296.0156 C919.8125,298.5938 921.9219,300.4844 924.8125,300.4844 C926.0313,300.4844 927.1875,300.1875 927.9375,299.6406 C928.5156,299.2344 928.8438,298.7813 928.8438,298.3906 C928.8438,297.9375 928.4531,297.5469 927.9844,297.5469 C927.7656,297.5469 927.5625,297.625 927.375,297.8125 C926.9219,298.2969 926.9219,298.2969 926.7344,298.3906 C926.3125,298.6563 925.625,298.7813 924.8594,298.7813 C922.8125,298.7813 921.5156,297.6875 921.5156,295.9844 L921.5156,294.8906 C921.5156,293.1094 922.7656,291.7969 924.5,291.7969 C925.0781,291.7969 925.6875,291.9531 926.1563,292.2031 C926.6406,292.4844 926.8125,292.7031 926.9063,293.1094 C926.9688,293.5156 927,293.6406 927.1406,293.7656 C927.2813,293.9063 927.5156,294.0156 927.7344,294.0156 C928,294.0156 928.2656,293.875 928.4375,293.6563 C928.5469,293.5 928.5781,293.3125 928.5781,292.8906 L928.5781,291.4688 C928.5781,291.0313 928.5625,290.9063 928.4688,290.75 C928.3125,290.4844 928.0313,290.3438 927.7344,290.3438 C927.4375,290.3438 927.2344,290.4375 927.0156,290.75 L926.8438,290.6719 Z " fill="#000000"/><text fill="#000000" font-family="sans-serif" font-size="14" lengthAdjust="spacing" textLength="31" x="938.5" y="299.8467">User</text><line style="stroke:#181818;stroke-width:0.5;" x1="910.5" x2="971.5" y1="311" y2="311"/><line style="stroke:#181818;stroke-width:0.5;" x1="910.5" x2="971.5" y1="319" y2="319"/></g><!--class Tag--><g id="elem_Tag"><rect codeLine="117" fill="#F1F1F1" height="80.5938" id="Tag" rx="2.5" ry="2.5" style="stroke:#181818;stroke-width:0.5;" width="97" x="754.5" y="526"/><ellipse cx="787.05" cy="542" fill="#ADD1B2" rx="11" ry="11" style="stroke:#181818;stroke-width:1.0;"/><path d="M789.3938,537.6719 C788.4563,537.2344 787.8625,537.0938 786.9875,537.0938 C784.3625,537.0938 782.3625,539.1719 782.3625,541.8906 L782.3625,543.0156 C782.3625,545.5938 784.4719,547.4844 787.3625,547.4844 C788.5813,547.4844 789.7375,547.1875 790.4875,546.6406 C791.0656,546.2344 791.3938,545.7813 791.3938,545.3906 C791.3938,544.9375 791.0031,544.5469 790.5344,544.5469 C790.3156,544.5469 790.1125,544.625 789.925,544.8125 C789.4719,545.2969 789.4719,545.2969 789.2844,545.3906 C788.8625,545.6563 788.175,545.7813 787.4094,545.7813 C785.3625,545.7813 784.0656,544.6875 784.0656,542.9844 L784.0656,541.8906 C784.0656,540.1094 785.3156,538.7969 787.05,538.7969 C787.6281,538.7969 788.2375,538.9531 788.7063,539.2031 C789.1906,539.4844 789.3625,539.7031 789.4563,540.1094 C789.5188,540.5156 789.55,540.6406 789.6906,540.7656 C789.8313,540.9063 790.0656,541.0156 790.2844,541.0156 C790.55,541.0156 790.8156,540.875 790.9875,540.6563 C791.0969,540.5 791.1281,540.3125 791.1281,539.8906 L791.1281,538.4688 C791.1281,538.0313 791.1125,537.9063 791.0188,537.75 C790.8625,537.4844 790.5813,537.3438 790.2844,537.3438 C789.9875,537.3438 789.7844,537.4375 789.5656,537.75 L789.3938,537.6719 Z " fill="#000000"/><text fill="#000000" font-family="sans-serif" font-size="14" lengthAdjust="spacing" textLength="26" x="804.95" y="546.8467">Tag</text><line style="stroke:#181818;stroke-width:0.5;" x1="755.5" x2="850.5" y1="558" y2="558"/><rect fill="none" height="6" style="stroke:#C82930;stroke-width:1.0;" width="6" x="762.5" y="568.6484"/><text fill="#000000" font-family="sans-serif" font-size="14" lengthAdjust="spacing" textLength="42" x="774.5" y="574.9951">id: int</text><rect fill="none" height="6" style="stroke:#C82930;stroke-width:1.0;" width="6" x="762.5" y="584.9453"/><text fill="#000000" font-family="sans-serif" font-size="14" lengthAdjust="spacing" textLength="71" x="774.5" y="591.292">name: Str</text><line style="stroke:#181818;stroke-width:0.5;" x1="755.5" x2="850.5" y1="598.5938" y2="598.5938"/></g><!--reverse link RecommenderEnsemble to RecommenderEnsempleEvaluation--><g id="link_RecommenderEnsemble_RecommenderEnsempleEvaluation"><path codeLine="13" d="M346.987,162.139 C313.712,193.168 276.865,227.527 248.02,254.425 " fill="none" id="RecommenderEnsemble-backto-RecommenderEnsempleEvaluation" style="stroke:#181818;stroke-width:1.0;"/><polygon fill="#181818" points="356.725,153.058,349.609,154.2252,347.9495,161.2428,355.0655,160.0756,356.725,153.058" style="stroke:#181818;stroke-width:1.0;"/><text fill="#000000" font-family="sans-serif" font-size="13" lengthAdjust="spacing" textLength="8" x="340.9785" y="172.8198">1</text><text fill="#000000" font-family="sans-serif" font-size="13" lengthAdjust="spacing" textLength="8" x="246.9261" y="243.2737">n</text></g><!--reverse link RecommenderEnsempleEvaluation to RecommenderEnsempleEvaluationMetric--><g id="link_RecommenderEnsempleEvaluation_RecommenderEnsempleEvaluationMetric"><path codeLine="15" d="M194.67,364.925 C192.889,411.494 190.469,474.785 188.827,517.727 " fill="none" id="RecommenderEnsempleEvaluation-backto-RecommenderEnsempleEvaluationMetric" style="stroke:#181818;stroke-width:1.0;"/><polygon fill="#181818" points="195.177,351.659,190.9511,357.5021,194.7194,363.6503,198.9453,357.8072,195.177,351.659" style="stroke:#181818;stroke-width:1.0;"/><text fill="#000000" font-family="sans-serif" font-size="13" lengthAdjust="spacing" textLength="8" x="186.3945" y="371.2885">1</text><text fill="#000000" font-family="sans-serif" font-size="13" lengthAdjust="spacing" textLength="8" x="180.5214" y="506.8975">n</text></g><!--link Recommender to RecommenderType--><g id="link_Recommender_RecommenderType"><path codeLine="38" d="M520.336,680.297 C512.197,705.334 503.768,731.266 496.273,754.326 " fill="none" id="Recommender-to-RecommenderType" style="stroke:#181818;stroke-width:1.0;stroke-dasharray:7.0,7.0;"/><polygon fill="none" points="502.93,756.49,490.09,773.347,489.615,752.163,502.93,756.49" style="stroke:#181818;stroke-width:1.0;"/></g><!--link SimilarityMatrix to SimilarityMatrixType--><g id="link_SimilarityMatrix_SimilarityMatrixType"><path codeLine="50" d="M701.513,903.275 C688.046,927.925 673.179,955.136 660.431,978.47 " fill="none" id="SimilarityMatrix-to-SimilarityMatrixType" style="stroke:#181818;stroke-width:1.0;stroke-dasharray:7.0,7.0;"/><polygon fill="none" points="666.461,982.033,650.729,996.228,654.175,975.32,666.461,982.033" style="stroke:#181818;stroke-width:1.0;"/></g><!--reverse link RecommenderEnsemble to RecommenderEnsembleConfig--><g id="link_RecommenderEnsemble_RecommenderEnsembleConfig"><path codeLine="84" d="M472.035,165.058 C481.666,186.342 491.925,209.015 501.268,229.662 " fill="none" id="RecommenderEnsemble-backto-RecommenderEnsembleConfig" style="stroke:#181818;stroke-width:1.0;"/><polygon fill="#181818" points="466.605,153.058,465.4345,160.1735,471.5524,163.9906,472.7229,156.8752,466.605,153.058" style="stroke:#181818;stroke-width:1.0;"/><text fill="#000000" font-family="sans-serif" font-size="13" lengthAdjust="spacing" textLength="8" x="461.3314" y="172.8198">1</text><text fill="#000000" font-family="sans-serif" font-size="13" lengthAdjust="spacing" textLength="8" x="489.767" y="219.0408">n</text></g><!--reverse link RecommenderEnsembleConfig to Recommender--><g id="link_RecommenderEnsembleConfig_Recommender"><path codeLine="85" d="M541.497,389.233 C543.283,409.549 545.218,431.539 547.094,452.874 " fill="none" id="RecommenderEnsembleConfig-backto-Recommender" style="stroke:#181818;stroke-width:1.0;"/><polygon fill="none" points="540.346,376.148,536.8869,382.4753,541.397,388.1019,544.8561,381.7746,540.346,376.148" style="stroke:#181818;stroke-width:1.0;"/><text fill="#000000" font-family="sans-serif" font-size="13" lengthAdjust="spacing" textLength="8" x="532.5696" y="395.9184">1</text><text fill="#000000" font-family="sans-serif" font-size="13" lengthAdjust="spacing" textLength="8" x="538.1597" y="441.7983">1</text></g><!--reverse link SimilarityMatrix to SimilarityMatrixCell--><g id="link_SimilarityMatrix_SimilarityMatrixCell"><path codeLine="88" d="M786.439,914.919 C795.199,931.098 804.305,947.915 812.845,963.686 " fill="none" id="SimilarityMatrix-backto-SimilarityMatrixCell" style="stroke:#181818;stroke-width:1.0;"/><polygon fill="#181818" points="780.134,903.275,779.4732,910.4558,785.8474,913.8276,786.5082,906.6468,780.134,903.275" style="stroke:#181818;stroke-width:1.0;"/><text fill="#000000" font-family="sans-serif" font-size="13" lengthAdjust="spacing" textLength="8" x="775.3729" y="922.8045">1</text><text fill="#000000" font-family="sans-serif" font-size="13" lengthAdjust="spacing" textLength="8" x="800.5969" y="952.8151">n</text></g><!--reverse link Recommender to SimilarityMatrix--><g id="link_Recommender_SimilarityMatrix"><path codeLine="90" d="M541.486,693.175 C543.841,705.093 547.822,716.594 554,727 C558.295,734.234 583.165,749.214 613.44,765.519 " fill="none" id="Recommender-backto-SimilarityMatrix" style="stroke:#181818;stroke-width:1.0;"/><polygon fill="none" points="539.542,680.11,536.4684,686.6333,541.3077,691.9794,544.3813,685.4561,539.542,680.11" style="stroke:#181818;stroke-width:1.0;"/><text fill="#000000" font-family="sans-serif" font-size="13" lengthAdjust="spacing" textLength="142" x="555" y="723.0669">user_similarity_matrix</text><text fill="#000000" font-family="sans-serif" font-size="13" lengthAdjust="spacing" textLength="8" x="530.1003" y="700.3095">1</text><text fill="#000000" font-family="sans-serif" font-size="13" lengthAdjust="spacing" textLength="8" x="597.4231" y="758.2103">1</text></g><!--reverse link Recommender to SimilarityMatrix--><g id="link_Recommender_SimilarityMatrix"><path codeLine="91" d="M688.85,690.677 C693.533,697.016 697.946,703.468 702,710 C710.884,724.317 717.964,740.871 723.517,756.996 " fill="none" id="Recommender-backto-SimilarityMatrix-1" style="stroke:#181818;stroke-width:1.0;"/><polygon fill="none" points="680.731,680.123,681.2191,687.3176,688.048,689.6341,687.5599,682.4396,680.731,680.123" style="stroke:#181818;stroke-width:1.0;"/><text fill="#000000" font-family="sans-serif" font-size="13" lengthAdjust="spacing" textLength="143" x="712" y="723.0669">item_similarity_matrix</text><text fill="#000000" font-family="sans-serif" font-size="13" lengthAdjust="spacing" textLength="8" x="680.7754" y="700.3234">1</text><text fill="#000000" font-family="sans-serif" font-size="13" lengthAdjust="spacing" textLength="8" x="713.3016" y="745.779">1</text></g><!--reverse link Interaction to Item--><g id="link_Interaction_Item"><path codeLine="101" d="M867.426,148.901 C858.778,169.451 849.154,192.323 840.036,213.99 " fill="none" id="Interaction-backto-Item" style="stroke:#181818;stroke-width:1.0;"/><polygon fill="#181818" points="872.532,136.768,866.5178,140.7467,867.8773,147.8285,873.8915,143.8498,872.532,136.768" style="stroke:#181818;stroke-width:1.0;"/><text fill="#000000" font-family="sans-serif" font-size="13" lengthAdjust="spacing" textLength="8" x="861.1843" y="156.6642">n</text><text fill="#000000" font-family="sans-serif" font-size="13" lengthAdjust="spacing" textLength="8" x="834.7718" y="203.0546">1</text></g><!--reverse link Interaction to User--><g id="link_Interaction_User"><path codeLine="103" d="M909.951,149.515 C918.951,193.714 930.094,248.44 936.286,278.851 " fill="none" id="Interaction-backto-User" style="stroke:#181818;stroke-width:1.0;"/><polygon fill="#181818" points="907.355,136.768,904.6328,143.4456,909.7497,148.5266,912.4719,141.8491,907.355,136.768" style="stroke:#181818;stroke-width:1.0;"/><text fill="#000000" font-family="sans-serif" font-size="13" lengthAdjust="spacing" textLength="8" x="900.2514" y="156.6642">n</text><text fill="#000000" font-family="sans-serif" font-size="13" lengthAdjust="spacing" textLength="8" x="926.053" y="267.8249">1</text></g><!--reverse link Item to Tag--><g id="link_Item_Tag"><path codeLine="122" d="M803,405.383 C803,447.531 803,493.973 803,525.936 " fill="none" id="Item-backto-Tag" style="stroke:#181818;stroke-width:1.0;"/><polygon fill="#181818" points="803,392.167,799,398.167,803,404.167,807,398.167,803,392.167" style="stroke:#181818;stroke-width:1.0;"/><text fill="#000000" font-family="sans-serif" font-size="13" lengthAdjust="spacing" textLength="8" x="794.6563" y="412.5308">n</text><text fill="#000000" font-family="sans-serif" font-size="13" lengthAdjust="spacing" textLength="8" x="794.3125" y="514.7882">n</text></g><!--SRC=[hLLTYwCm57ttLuG-pGvqO5vbAPJYB88TYxMpZo6rQGcOf9ZOdRAx_tsJ63zYrMvX-b3nt8-SUsxkDSkH42316QSKimCk0YOmFUSukA2yH99m1dvxGFtcW1nyG9YqRvYXVOvziESyRo0LQy1-GWLwVpqlkt_Q6ik2PCsPk37uqt7MlnIuyC5E_Lj0EoX2nvmZgIaCC0Eprnbudi_1ZCtk7E9DA_NVYQeg1mGP4LjUpwwggGAiZI6gR4BM5H-mo0fohZHhuJCNfC8cUwW5X89GagE2o2kaI37zzC6sWTO6gMbAJ1zmf-YpzeRw9D5bqpNgl3T60yBzrKbHEQdEObRIlaHMpasysKNBP6jUteEVq05sso21coH-2wF00AiuYfOVSR9Cmuy0AZWDal3zH-_wW9UNFukRdjYMzkiVwMk_TrMV-y6TPeyqzwAah7iBdY8aP0rzinuPpdCbQ4I4_DxFlrAsXQxEkw5jQXpaK-azPBArXccmXcaCzRFLMG7wsMw38J8ZQjsvN0N_rVNEU5vIvxexk-1MkF4DfPT4br8h_DSENz6Uk-BiI4vrnmO8LGwBITALp-W2dzhMDuGSDsj6cIGN38y5fv2PQTGpMfWLvqolTPHyserrHXmBfp6FxkscUczS5ntFTVoh4pyq1zsZXcwikncwYVlU_iYAVI31yDAjxq78jBRPnATRn_iWLFzZNqtT6tRgV3QzRbOjmhDbPxACMatAcfVod5o3s-4fQc52qKdvxPAe6QjpMMdWJhLBtquwbrYua4JDWAMe6YNBLRtUfQgyJKbDlUgfulu1]--></g></svg>