<?xml version="1.0" encoding="UTF-8" standalone="no"?><svg xmlns="http://www.w3.org/2000/svg" xmlns:xlink="http://www.w3.org/1999/xlink" contentScriptType="application/ecmascript" contentStyleType="text/css" height="1233px" preserveAspectRatio="none" style="width:927px;height:1233px;" version="1.1" viewBox="0 0 927 1233" width="927px" zoomAndPan="magnify"><defs><filter height="300%" id="fag59cix6vrbi" width="300%" x="-1" y="-1"><feGaussianBlur result="blurOut" stdDeviation="2.0"/><feColorMatrix in="blurOut" result="blurOut2" type="matrix" values="0 0 0 0 0 0 0 0 0 0 0 0 0 0 0 0 0 0 .4 0"/><feOffset dx="4.0" dy="4.0" in="blurOut2" result="blurOut3"/><feBlend in="SourceGraphic" in2="blurOut3" mode="normal"/></filter></defs><g><!--MD5=[2f403f7ec310074821257a41312bae75]
class RecommenderEnsempleEvaluation--><rect codeLine="1" fill="#FEFECE" filter="url(#fag59cix6vrbi)" height="92.9457" id="RecommenderEnsempleEvaluation" style="stroke:#A80036;stroke-width:1.5;" width="227" x="40" y="282"/><ellipse cx="55" cy="298" fill="#ADD1B2" rx="11" ry="11" style="stroke:#A80036;stroke-width:1.0;"/><path d="M54.4688,304.9219 Q52.7188,304.9219 51.5781,304.1875 Q50.4531,303.4375 49.8906,302.0938 Q49.3438,300.7344 49.3438,298.9375 Q49.3438,296.9063 50,295.4531 Q50.6563,294 51.9375,293.2188 Q53.2188,292.4375 55.0938,292.4375 Q55.9844,292.4375 56.6563,292.625 Q57.3281,292.7969 58.0156,293.1406 L57.2031,295.1563 Q56.5781,294.8438 56.0313,294.7188 Q55.5,294.5938 55.0156,294.5938 Q53.8438,294.5938 53.1406,295.125 Q52.4375,295.6563 52.1406,296.6094 Q51.8438,297.5625 51.8438,298.8281 Q51.8438,300.8438 52.5625,301.8125 Q53.2813,302.7656 54.875,302.7656 Q55.4688,302.7656 56.0938,302.6094 Q56.7188,302.4531 57.5469,302.0781 L57.5469,304.2969 Q56.8125,304.6094 56.0156,304.7656 Q55.2344,304.9219 54.4688,304.9219 Z " fill="#000000"/><text fill="#000000" font-family="sans-serif" font-size="12" lengthAdjust="spacing" textLength="195" x="69" y="302.656">RecommenderEnsempleEvaluation</text><line style="stroke:#A80036;stroke-width:1.5;" x1="41" x2="266" y1="314" y2="314"/><rect fill="none" height="6" style="stroke:#C82930;stroke-width:1.0;" width="6" x="48" y="322"/><text fill="#000000" font-family="sans-serif" font-size="11" lengthAdjust="spacing" textLength="30" x="60" y="329.7589">id: int</text><rect fill="none" height="6" style="stroke:#C82930;stroke-width:1.0;" width="6" x="48" y="336.9819"/><text fill="#000000" font-family="sans-serif" font-size="11" lengthAdjust="spacing" textLength="65" x="60" y="344.7408">enable: bool</text><rect fill="none" height="6" style="stroke:#C82930;stroke-width:1.0;" width="6" x="48" y="351.9638"/><text fill="#000000" font-family="sans-serif" font-size="11" lengthAdjust="spacing" textLength="182" x="60" y="359.7227">ensemble: RecommenderEnsemble</text><line style="stroke:#A80036;stroke-width:1.5;" x1="41" x2="266" y1="366.9457" y2="366.9457"/><!--MD5=[bb66445c13e2e19d1e73440c72cc9a4b]
class RecommenderEnsempleEvaluationMetric--><rect codeLine="7" fill="#FEFECE" filter="url(#fag59cix6vrbi)" height="92.9457" id="RecommenderEnsempleEvaluationMetric" style="stroke:#A80036;stroke-width:1.5;" width="268" x="7" y="572.5"/><ellipse cx="24.25" cy="588.5" fill="#ADD1B2" rx="11" ry="11" style="stroke:#A80036;stroke-width:1.0;"/><path d="M23.7188,595.4219 Q21.9688,595.4219 20.8281,594.6875 Q19.7031,593.9375 19.1406,592.5938 Q18.5938,591.2344 18.5938,589.4375 Q18.5938,587.4063 19.25,585.9531 Q19.9063,584.5 21.1875,583.7188 Q22.4688,582.9375 24.3438,582.9375 Q25.2344,582.9375 25.9063,583.125 Q26.5781,583.2969 27.2656,583.6406 L26.4531,585.6563 Q25.8281,585.3438 25.2813,585.2188 Q24.75,585.0938 24.2656,585.0938 Q23.0938,585.0938 22.3906,585.625 Q21.6875,586.1563 21.3906,587.1094 Q21.0938,588.0625 21.0938,589.3281 Q21.0938,591.3438 21.8125,592.3125 Q22.5313,593.2656 24.125,593.2656 Q24.7188,593.2656 25.3438,593.1094 Q25.9688,592.9531 26.7969,592.5781 L26.7969,594.7969 Q26.0625,595.1094 25.2656,595.2656 Q24.4844,595.4219 23.7188,595.4219 Z " fill="#000000"/><text fill="#000000" font-family="sans-serif" font-size="12" lengthAdjust="spacing" textLength="231" x="38.75" y="593.156">RecommenderEnsempleEvaluationMetric</text><line style="stroke:#A80036;stroke-width:1.5;" x1="8" x2="274" y1="604.5" y2="604.5"/><rect fill="none" height="6" style="stroke:#C82930;stroke-width:1.0;" width="6" x="15" y="612.5"/><text fill="#000000" font-family="sans-serif" font-size="11" lengthAdjust="spacing" textLength="242" x="27" y="620.2589">evaluation: RecommenderEnsempleEvaluation</text><rect fill="none" height="6" style="stroke:#C82930;stroke-width:1.0;" width="6" x="15" y="627.4819"/><text fill="#000000" font-family="sans-serif" font-size="11" lengthAdjust="spacing" textLength="53" x="27" y="635.2408">user: User</text><rect fill="none" height="6" style="stroke:#C82930;stroke-width:1.0;" width="6" x="15" y="642.4638"/><text fill="#000000" font-family="sans-serif" font-size="11" lengthAdjust="spacing" textLength="58" x="27" y="650.2227">value: float</text><line style="stroke:#A80036;stroke-width:1.5;" x1="8" x2="274" y1="657.4457" y2="657.4457"/><!--MD5=[15acb98713702e37a8aefe2ce9456d51]
class RecommenderEnsemble--><rect codeLine="66" fill="#FEFECE" filter="url(#fag59cix6vrbi)" height="137.8913" id="RecommenderEnsemble" style="stroke:#A80036;stroke-width:1.5;" width="337" x="109" y="7"/><ellipse cx="204.75" cy="23" fill="#ADD1B2" rx="11" ry="11" style="stroke:#A80036;stroke-width:1.0;"/><path d="M204.2188,29.9219 Q202.4688,29.9219 201.3281,29.1875 Q200.2031,28.4375 199.6406,27.0938 Q199.0938,25.7344 199.0938,23.9375 Q199.0938,21.9063 199.75,20.4531 Q200.4063,19 201.6875,18.2188 Q202.9688,17.4375 204.8438,17.4375 Q205.7344,17.4375 206.4063,17.625 Q207.0781,17.7969 207.7656,18.1406 L206.9531,20.1563 Q206.3281,19.8438 205.7813,19.7188 Q205.25,19.5938 204.7656,19.5938 Q203.5938,19.5938 202.8906,20.125 Q202.1875,20.6563 201.8906,21.6094 Q201.5938,22.5625 201.5938,23.8281 Q201.5938,25.8438 202.3125,26.8125 Q203.0313,27.7656 204.625,27.7656 Q205.2188,27.7656 205.8438,27.6094 Q206.4688,27.4531 207.2969,27.0781 L207.2969,29.2969 Q206.5625,29.6094 205.7656,29.7656 Q204.9844,29.9219 204.2188,29.9219 Z " fill="#000000"/><text fill="#000000" font-family="sans-serif" font-size="12" lengthAdjust="spacing" textLength="137" x="225.25" y="27.656">RecommenderEnsemble</text><line style="stroke:#A80036;stroke-width:1.5;" x1="110" x2="445" y1="39" y2="39"/><rect fill="none" height="6" style="stroke:#C82930;stroke-width:1.0;" width="6" x="117" y="47"/><text fill="#000000" font-family="sans-serif" font-size="11" lengthAdjust="spacing" textLength="30" x="129" y="54.7589">id: str</text><rect fill="none" height="6" style="stroke:#C82930;stroke-width:1.0;" width="6" x="117" y="61.9819"/><text fill="#000000" font-family="sans-serif" font-size="11" lengthAdjust="spacing" textLength="49" x="129" y="69.7408">name: str</text><rect fill="none" height="6" style="stroke:#C82930;stroke-width:1.0;" width="6" x="117" y="76.9638"/><text fill="#000000" font-family="sans-serif" font-size="11" lengthAdjust="spacing" textLength="79" x="129" y="84.7227">description: str</text><rect fill="none" height="6" style="stroke:#C82930;stroke-width:1.0;" width="6" x="117" y="91.9457"/><text fill="#000000" font-family="sans-serif" font-size="11" lengthAdjust="spacing" textLength="63" x="129" y="99.7046">position: int</text><rect fill="none" height="6" style="stroke:#C82930;stroke-width:1.0;" width="6" x="117" y="106.9276"/><text fill="#000000" font-family="sans-serif" font-size="11" lengthAdjust="spacing" textLength="65" x="129" y="114.6865">enable: bool</text><rect fill="none" height="6" style="stroke:#C82930;stroke-width:1.0;" width="6" x="117" y="121.9094"/><text fill="#000000" font-family="sans-serif" font-size="11" lengthAdjust="spacing" textLength="311" x="129" y="129.6684">recommenderConfigs: List&lt;RecommenderEnsembleConfig&gt;</text><line style="stroke:#A80036;stroke-width:1.5;" x1="110" x2="445" y1="136.8913" y2="136.8913"/><!--MD5=[0519991ee8293750ee1dd942e4138875]
class Recommender--><rect codeLine="17" fill="#FEFECE" filter="url(#fag59cix6vrbi)" height="212.8008" id="Recommender" style="stroke:#A80036;stroke-width:1.5;" width="230" x="358" y="512.5"/><ellipse cx="427.75" cy="528.5" fill="#ADD1B2" rx="11" ry="11" style="stroke:#A80036;stroke-width:1.0;"/><path d="M427.2188,535.4219 Q425.4688,535.4219 424.3281,534.6875 Q423.2031,533.9375 422.6406,532.5938 Q422.0938,531.2344 422.0938,529.4375 Q422.0938,527.4063 422.75,525.9531 Q423.4063,524.5 424.6875,523.7188 Q425.9688,522.9375 427.8438,522.9375 Q428.7344,522.9375 429.4063,523.125 Q430.0781,523.2969 430.7656,523.6406 L429.9531,525.6563 Q429.3281,525.3438 428.7813,525.2188 Q428.25,525.0938 427.7656,525.0938 Q426.5938,525.0938 425.8906,525.625 Q425.1875,526.1563 424.8906,527.1094 Q424.5938,528.0625 424.5938,529.3281 Q424.5938,531.3438 425.3125,532.3125 Q426.0313,533.2656 427.625,533.2656 Q428.2188,533.2656 428.8438,533.1094 Q429.4688,532.9531 430.2969,532.5781 L430.2969,534.7969 Q429.5625,535.1094 428.7656,535.2656 Q427.9844,535.4219 427.2188,535.4219 Z " fill="#000000"/><text fill="#000000" font-family="sans-serif" font-size="12" lengthAdjust="spacing" textLength="82" x="448.25" y="533.156">Recommender</text><line style="stroke:#A80036;stroke-width:1.5;" x1="359" x2="587" y1="544.5" y2="544.5"/><rect fill="none" height="6" style="stroke:#C82930;stroke-width:1.0;" width="6" x="366" y="552.5"/><text fill="#000000" font-family="sans-serif" font-size="11" lengthAdjust="spacing" textLength="30" x="378" y="560.2589">id: int</text><rect fill="none" height="6" style="stroke:#C82930;stroke-width:1.0;" width="6" x="366" y="567.4819"/><text fill="#000000" font-family="sans-serif" font-size="11" lengthAdjust="spacing" textLength="130" x="378" y="575.2408">type: RecommenderType</text><rect fill="none" height="6" style="stroke:#C82930;stroke-width:1.0;" width="6" x="366" y="582.4638"/><text fill="#000000" font-family="sans-serif" font-size="11" lengthAdjust="spacing" textLength="49" x="378" y="590.2227">name: str</text><rect fill="none" height="6" style="stroke:#C82930;stroke-width:1.0;" width="6" x="366" y="597.4457"/><text fill="#000000" font-family="sans-serif" font-size="11" lengthAdjust="spacing" textLength="79" x="378" y="605.2046">description: str</text><rect fill="none" height="6" style="stroke:#C82930;stroke-width:1.0;" width="6" x="366" y="612.4276"/><text fill="#000000" font-family="sans-serif" font-size="11" lengthAdjust="spacing" textLength="63" x="378" y="620.1865">position: int</text><rect fill="none" height="6" style="stroke:#C82930;stroke-width:1.0;" width="6" x="366" y="627.4094"/><text fill="#000000" font-family="sans-serif" font-size="11" lengthAdjust="spacing" textLength="65" x="378" y="635.1684">enable: bool</text><rect fill="none" height="6" style="stroke:#C82930;stroke-width:1.0;" width="6" x="366" y="642.3913"/><text fill="#000000" font-family="sans-serif" font-size="11" lengthAdjust="spacing" textLength="204" x="378" y="650.1502">user_similarity_matrix: SimilarityMatrix</text><rect fill="none" height="6" style="stroke:#C82930;stroke-width:1.0;" width="6" x="366" y="657.3732"/><text fill="#000000" font-family="sans-serif" font-size="11" lengthAdjust="spacing" textLength="204" x="378" y="665.1321">item_similarity_matrix: SimilarityMatrix</text><rect fill="none" height="6" style="stroke:#C82930;stroke-width:1.0;" width="6" x="366" y="672.3551"/><text fill="#000000" font-family="sans-serif" font-size="11" lengthAdjust="spacing" textLength="115" x="378" y="680.114">max_similar_users: int</text><rect fill="none" height="6" style="stroke:#C82930;stroke-width:1.0;" width="6" x="366" y="687.337"/><text fill="#000000" font-family="sans-serif" font-size="11" lengthAdjust="spacing" textLength="115" x="378" y="695.0959">max_similar_items: int</text><rect fill="none" height="6" style="stroke:#C82930;stroke-width:1.0;" width="6" x="366" y="702.3189"/><text fill="#000000" font-family="sans-serif" font-size="11" lengthAdjust="spacing" textLength="161" x="378" y="710.0778">max_items_by_similar_user: int</text><line style="stroke:#A80036;stroke-width:1.5;" x1="359" x2="587" y1="717.3008" y2="717.3008"/><!--MD5=[39dd28d13bc809ff9631a79a047e7162]
class RecommenderType--><rect codeLine="31" fill="#FEFECE" filter="url(#fag59cix6vrbi)" height="107.9276" id="RecommenderType" style="stroke:#A80036;stroke-width:1.5;" width="160" x="334" y="858"/><ellipse cx="357.55" cy="874" fill="#EB937F" rx="11" ry="11" style="stroke:#A80036;stroke-width:1.0;"/><path d="M353.9094,880.5 L353.9094,868.3594 L361.5656,868.3594 L361.5656,870.4844 L356.2844,870.4844 L356.2844,873.1406 L361.3,873.1406 L361.3,875.2656 L356.2844,875.2656 L356.2844,878.375 L361.5656,878.375 L361.5656,880.5 L353.9094,880.5 Z " fill="#000000"/><text fill="#000000" font-family="sans-serif" font-size="12" lengthAdjust="spacing" textLength="109" x="373.45" y="878.656">RecommenderType</text><line style="stroke:#A80036;stroke-width:1.5;" x1="335" x2="493" y1="890" y2="890"/><text fill="#000000" font-family="sans-serif" font-size="11" lengthAdjust="spacing" textLength="57" x="340" y="905.7589">POPULARS</text><text fill="#000000" font-family="sans-serif" font-size="11" lengthAdjust="spacing" textLength="86" x="340" y="920.7408">NEW_POPULARS</text><text fill="#000000" font-family="sans-serif" font-size="11" lengthAdjust="spacing" textLength="77" x="340" y="935.7227">USER_PROFILE</text><text fill="#000000" font-family="sans-serif" font-size="11" lengthAdjust="spacing" textLength="148" x="340" y="950.7046">COLLAVORATIVE_FILTERING</text><line style="stroke:#A80036;stroke-width:1.5;" x1="335" x2="493" y1="957.9276" y2="957.9276"/><!--MD5=[9a9a2e332854ae083fd7ea5ac0f6689c]
class SimilarityMatrix--><rect codeLine="40" fill="#FEFECE" filter="url(#fag59cix6vrbi)" height="137.8913" id="SimilarityMatrix" style="stroke:#A80036;stroke-width:1.5;" width="186" x="553" y="844"/><ellipse cx="597.75" cy="860" fill="#ADD1B2" rx="11" ry="11" style="stroke:#A80036;stroke-width:1.0;"/><path d="M597.2188,866.9219 Q595.4688,866.9219 594.3281,866.1875 Q593.2031,865.4375 592.6406,864.0938 Q592.0938,862.7344 592.0938,860.9375 Q592.0938,858.9063 592.75,857.4531 Q593.4063,856 594.6875,855.2188 Q595.9688,854.4375 597.8438,854.4375 Q598.7344,854.4375 599.4063,854.625 Q600.0781,854.7969 600.7656,855.1406 L599.9531,857.1563 Q599.3281,856.8438 598.7813,856.7188 Q598.25,856.5938 597.7656,856.5938 Q596.5938,856.5938 595.8906,857.125 Q595.1875,857.6563 594.8906,858.6094 Q594.5938,859.5625 594.5938,860.8281 Q594.5938,862.8438 595.3125,863.8125 Q596.0313,864.7656 597.625,864.7656 Q598.2188,864.7656 598.8438,864.6094 Q599.4688,864.4531 600.2969,864.0781 L600.2969,866.2969 Q599.5625,866.6094 598.7656,866.7656 Q597.9844,866.9219 597.2188,866.9219 Z " fill="#000000"/><text fill="#000000" font-family="sans-serif" font-size="12" lengthAdjust="spacing" textLength="88" x="618.25" y="864.656">SimilarityMatrix</text><line style="stroke:#A80036;stroke-width:1.5;" x1="554" x2="738" y1="876" y2="876"/><rect fill="none" height="6" style="stroke:#C82930;stroke-width:1.0;" width="6" x="561" y="884"/><text fill="#000000" font-family="sans-serif" font-size="11" lengthAdjust="spacing" textLength="30" x="573" y="891.7589">id: int</text><rect fill="none" height="6" style="stroke:#C82930;stroke-width:1.0;" width="6" x="561" y="898.9819"/><text fill="#000000" font-family="sans-serif" font-size="11" lengthAdjust="spacing" textLength="49" x="573" y="906.7408">name: str</text><rect fill="none" height="6" style="stroke:#C82930;stroke-width:1.0;" width="6" x="561" y="913.9638"/><text fill="#000000" font-family="sans-serif" font-size="11" lengthAdjust="spacing" textLength="137" x="573" y="921.7227">type: SimilarityMatrixType</text><rect fill="none" height="6" style="stroke:#C82930;stroke-width:1.0;" width="6" x="561" y="928.9457"/><text fill="#000000" font-family="sans-serif" font-size="11" lengthAdjust="spacing" textLength="79" x="573" y="936.7046">description: str</text><rect fill="none" height="6" style="stroke:#C82930;stroke-width:1.0;" width="6" x="561" y="943.9276"/><text fill="#000000" font-family="sans-serif" font-size="11" lengthAdjust="spacing" textLength="160" x="573" y="951.6865">cells: List&lt;SimilarityMatrixCell&gt;</text><line style="stroke:#A80036;stroke-width:1.5;" x1="554" x2="738" y1="958.9094" y2="958.9094"/><rect fill="#F24D5C" height="6" style="stroke:#C82930;stroke-width:1.0;" width="6" x="561" y="966.9094"/><text fill="#000000" font-family="sans-serif" font-size="11" lengthAdjust="spacing" textLength="131" x="573" y="974.6684">version: int (Last version)</text><!--MD5=[9b0b4a72d0be2d7dee92ffa2fa9467ba]
class SimilarityMatrixType--><rect codeLine="52" fill="#FEFECE" filter="url(#fag59cix6vrbi)" height="77.9638" id="SimilarityMatrixType" style="stroke:#A80036;stroke-width:1.5;" width="147" x="468.5" y="1111"/><ellipse cx="483.5" cy="1127" fill="#EB937F" rx="11" ry="11" style="stroke:#A80036;stroke-width:1.0;"/><path d="M479.8594,1133.5 L479.8594,1121.3594 L487.5156,1121.3594 L487.5156,1123.4844 L482.2344,1123.4844 L482.2344,1126.1406 L487.25,1126.1406 L487.25,1128.2656 L482.2344,1128.2656 L482.2344,1131.375 L487.5156,1131.375 L487.5156,1133.5 L479.8594,1133.5 Z " fill="#000000"/><text fill="#000000" font-family="sans-serif" font-size="12" lengthAdjust="spacing" textLength="115" x="497.5" y="1131.656">SimilarityMatrixType</text><line style="stroke:#A80036;stroke-width:1.5;" x1="469.5" x2="614.5" y1="1143" y2="1143"/><text fill="#000000" font-family="sans-serif" font-size="11" lengthAdjust="spacing" textLength="77" x="474.5" y="1158.7589">ITEM_TO_ITEM</text><text fill="#000000" font-family="sans-serif" font-size="11" lengthAdjust="spacing" textLength="79" x="474.5" y="1173.7408">USER_TO_USER</text><line style="stroke:#A80036;stroke-width:1.5;" x1="469.5" x2="614.5" y1="1180.9638" y2="1180.9638"/><!--MD5=[1232a14bd582463fd165633723d735d6]
class SimilarityMatrixCell--><rect codeLine="57" fill="#FEFECE" filter="url(#fag59cix6vrbi)" height="137.8913" id="SimilarityMatrixCell" style="stroke:#A80036;stroke-width:1.5;" width="149" x="675" y="1082"/><ellipse cx="693.6" cy="1098" fill="#ADD1B2" rx="11" ry="11" style="stroke:#A80036;stroke-width:1.0;"/><path d="M693.0688,1104.9219 Q691.3188,1104.9219 690.1781,1104.1875 Q689.0531,1103.4375 688.4906,1102.0938 Q687.9438,1100.7344 687.9438,1098.9375 Q687.9438,1096.9063 688.6,1095.4531 Q689.2563,1094 690.5375,1093.2188 Q691.8188,1092.4375 693.6938,1092.4375 Q694.5844,1092.4375 695.2563,1092.625 Q695.9281,1092.7969 696.6156,1093.1406 L695.8031,1095.1563 Q695.1781,1094.8438 694.6313,1094.7188 Q694.1,1094.5938 693.6156,1094.5938 Q692.4438,1094.5938 691.7406,1095.125 Q691.0375,1095.6563 690.7406,1096.6094 Q690.4438,1097.5625 690.4438,1098.8281 Q690.4438,1100.8438 691.1625,1101.8125 Q691.8813,1102.7656 693.475,1102.7656 Q694.0688,1102.7656 694.6938,1102.6094 Q695.3188,1102.4531 696.1469,1102.0781 L696.1469,1104.2969 Q695.4125,1104.6094 694.6156,1104.7656 Q693.8344,1104.9219 693.0688,1104.9219 Z " fill="#000000"/><text fill="#000000" font-family="sans-serif" font-size="12" lengthAdjust="spacing" textLength="109" x="708.4" y="1102.656">SimilarityMatrixCell</text><line style="stroke:#A80036;stroke-width:1.5;" x1="676" x2="823" y1="1114" y2="1114"/><rect fill="none" height="6" style="stroke:#C82930;stroke-width:1.0;" width="6" x="683" y="1122"/><text fill="#000000" font-family="sans-serif" font-size="11" lengthAdjust="spacing" textLength="30" x="695" y="1129.7589">id: int</text><rect fill="none" height="6" style="stroke:#C82930;stroke-width:1.0;" width="6" x="683" y="1136.9819"/><text fill="#000000" font-family="sans-serif" font-size="11" lengthAdjust="spacing" textLength="123" x="695" y="1144.7408">matrix: SimilarityMatrix</text><rect fill="none" height="6" style="stroke:#C82930;stroke-width:1.0;" width="6" x="683" y="1151.9638"/><text fill="#000000" font-family="sans-serif" font-size="11" lengthAdjust="spacing" textLength="41" x="695" y="1159.7227">row: int</text><rect fill="none" height="6" style="stroke:#C82930;stroke-width:1.0;" width="6" x="683" y="1166.9457"/><text fill="#000000" font-family="sans-serif" font-size="11" lengthAdjust="spacing" textLength="59" x="695" y="1174.7046">column: int</text><rect fill="none" height="6" style="stroke:#C82930;stroke-width:1.0;" width="6" x="683" y="1181.9276"/><text fill="#000000" font-family="sans-serif" font-size="11" lengthAdjust="spacing" textLength="58" x="695" y="1189.6865">value: float</text><rect fill="none" height="6" style="stroke:#C82930;stroke-width:1.0;" width="6" x="683" y="1196.9094"/><text fill="#000000" font-family="sans-serif" font-size="11" lengthAdjust="spacing" textLength="59" x="695" y="1204.6684">version: int</text><line style="stroke:#A80036;stroke-width:1.5;" x1="676" x2="823" y1="1211.8913" y2="1211.8913"/><!--MD5=[9aefda4bac3f5325fa10ff32671bbddf]
class RecommenderEnsembleConfig--><rect codeLine="75" fill="#FEFECE" filter="url(#fag59cix6vrbi)" height="137.8913" id="RecommenderEnsembleConfig" style="stroke:#A80036;stroke-width:1.5;" width="208" x="362" y="260"/><ellipse cx="378.35" cy="276" fill="#ADD1B2" rx="11" ry="11" style="stroke:#A80036;stroke-width:1.0;"/><path d="M377.8188,282.9219 Q376.0688,282.9219 374.9281,282.1875 Q373.8031,281.4375 373.2406,280.0938 Q372.6938,278.7344 372.6938,276.9375 Q372.6938,274.9063 373.35,273.4531 Q374.0063,272 375.2875,271.2188 Q376.5688,270.4375 378.4438,270.4375 Q379.3344,270.4375 380.0063,270.625 Q380.6781,270.7969 381.3656,271.1406 L380.5531,273.1563 Q379.9281,272.8438 379.3813,272.7188 Q378.85,272.5938 378.3656,272.5938 Q377.1938,272.5938 376.4906,273.125 Q375.7875,273.6563 375.4906,274.6094 Q375.1938,275.5625 375.1938,276.8281 Q375.1938,278.8438 375.9125,279.8125 Q376.6313,280.7656 378.225,280.7656 Q378.8188,280.7656 379.4438,280.6094 Q380.0688,280.4531 380.8969,280.0781 L380.8969,282.2969 Q380.1625,282.6094 379.3656,282.7656 Q378.5844,282.9219 377.8188,282.9219 Z " fill="#000000"/><text fill="#000000" font-family="sans-serif" font-size="12" lengthAdjust="spacing" textLength="173" x="392.65" y="280.656">RecommenderEnsembleConfig</text><line style="stroke:#A80036;stroke-width:1.5;" x1="363" x2="569" y1="292" y2="292"/><rect fill="none" height="6" style="stroke:#C82930;stroke-width:1.0;" width="6" x="370" y="300"/><text fill="#000000" font-family="sans-serif" font-size="11" lengthAdjust="spacing" textLength="30" x="382" y="307.7589">id: int</text><rect fill="none" height="6" style="stroke:#C82930;stroke-width:1.0;" width="6" x="370" y="314.9819"/><text fill="#000000" font-family="sans-serif" font-size="11" lengthAdjust="spacing" textLength="182" x="382" y="322.7408">ensemble: RecommenderEnsemble</text><rect fill="none" height="6" style="stroke:#C82930;stroke-width:1.0;" width="6" x="370" y="329.9638"/><text fill="#000000" font-family="sans-serif" font-size="11" lengthAdjust="spacing" textLength="156" x="382" y="337.7227">recommender: Recommender</text><rect fill="none" height="6" style="stroke:#C82930;stroke-width:1.0;" width="6" x="370" y="344.9457"/><text fill="#000000" font-family="sans-serif" font-size="11" lengthAdjust="spacing" textLength="176" x="382" y="352.7046">active_from_n_user_iterations: int</text><rect fill="none" height="6" style="stroke:#C82930;stroke-width:1.0;" width="6" x="370" y="359.9276"/><text fill="#000000" font-family="sans-serif" font-size="11" lengthAdjust="spacing" textLength="161" x="382" y="367.6865">active_to_n_user_iterations: int</text><rect fill="none" height="6" style="stroke:#C82930;stroke-width:1.0;" width="6" x="370" y="374.9094"/><text fill="#000000" font-family="sans-serif" font-size="11" lengthAdjust="spacing" textLength="121" x="382" y="382.6684">n_items_by_session: int</text><line style="stroke:#A80036;stroke-width:1.5;" x1="363" x2="569" y1="389.8913" y2="389.8913"/><!--MD5=[8e99fe642d6b0197bff658f760a93d49]
class Interaction--><rect codeLine="93" fill="#FEFECE" filter="url(#fag59cix6vrbi)" height="107.9276" id="Interaction" style="stroke:#A80036;stroke-width:1.5;" width="93" x="753" y="22"/><ellipse cx="768" cy="38" fill="#ADD1B2" rx="11" ry="11" style="stroke:#A80036;stroke-width:1.0;"/><path d="M767.4688,44.9219 Q765.7188,44.9219 764.5781,44.1875 Q763.4531,43.4375 762.8906,42.0938 Q762.3438,40.7344 762.3438,38.9375 Q762.3438,36.9063 763,35.4531 Q763.6563,34 764.9375,33.2188 Q766.2188,32.4375 768.0938,32.4375 Q768.9844,32.4375 769.6563,32.625 Q770.3281,32.7969 771.0156,33.1406 L770.2031,35.1563 Q769.5781,34.8438 769.0313,34.7188 Q768.5,34.5938 768.0156,34.5938 Q766.8438,34.5938 766.1406,35.125 Q765.4375,35.6563 765.1406,36.6094 Q764.8438,37.5625 764.8438,38.8281 Q764.8438,40.8438 765.5625,41.8125 Q766.2813,42.7656 767.875,42.7656 Q768.4688,42.7656 769.0938,42.6094 Q769.7188,42.4531 770.5469,42.0781 L770.5469,44.2969 Q769.8125,44.6094 769.0156,44.7656 Q768.2344,44.9219 767.4688,44.9219 Z " fill="#000000"/><text fill="#000000" font-family="sans-serif" font-size="12" lengthAdjust="spacing" textLength="61" x="782" y="42.656">Interaction</text><line style="stroke:#A80036;stroke-width:1.5;" x1="754" x2="845" y1="54" y2="54"/><rect fill="none" height="6" style="stroke:#C82930;stroke-width:1.0;" width="6" x="761" y="62"/><text fill="#000000" font-family="sans-serif" font-size="11" lengthAdjust="spacing" textLength="30" x="773" y="69.7589">id: int</text><rect fill="none" height="6" style="stroke:#C82930;stroke-width:1.0;" width="6" x="761" y="76.9819"/><text fill="#000000" font-family="sans-serif" font-size="11" lengthAdjust="spacing" textLength="53" x="773" y="84.7408">item: Item</text><rect fill="none" height="6" style="stroke:#C82930;stroke-width:1.0;" width="6" x="761" y="91.9638"/><text fill="#000000" font-family="sans-serif" font-size="11" lengthAdjust="spacing" textLength="53" x="773" y="99.7227">user: User</text><rect fill="none" height="6" style="stroke:#C82930;stroke-width:1.0;" width="6" x="761" y="106.9457"/><text fill="#000000" font-family="sans-serif" font-size="11" lengthAdjust="spacing" textLength="62" x="773" y="114.7046">rating: float</text><line style="stroke:#A80036;stroke-width:1.5;" x1="754" x2="845" y1="121.9276" y2="121.9276"/><!--MD5=[44a1b4afaef76c16e6c9ec4990ad0c8d]
class Item--><rect codeLine="105" fill="#FEFECE" filter="url(#fag59cix6vrbi)" height="167.8551" id="Item" style="stroke:#A80036;stroke-width:1.5;" width="111" x="660" y="245"/><ellipse cx="698.85" cy="261" fill="#ADD1B2" rx="11" ry="11" style="stroke:#A80036;stroke-width:1.0;"/><path d="M698.3188,267.9219 Q696.5688,267.9219 695.4281,267.1875 Q694.3031,266.4375 693.7406,265.0938 Q693.1938,263.7344 693.1938,261.9375 Q693.1938,259.9063 693.85,258.4531 Q694.5063,257 695.7875,256.2188 Q697.0688,255.4375 698.9438,255.4375 Q699.8344,255.4375 700.5063,255.625 Q701.1781,255.7969 701.8656,256.1406 L701.0531,258.1563 Q700.4281,257.8438 699.8813,257.7188 Q699.35,257.5938 698.8656,257.5938 Q697.6938,257.5938 696.9906,258.125 Q696.2875,258.6563 695.9906,259.6094 Q695.6938,260.5625 695.6938,261.8281 Q695.6938,263.8438 696.4125,264.8125 Q697.1313,265.7656 698.725,265.7656 Q699.3188,265.7656 699.9438,265.6094 Q700.5688,265.4531 701.3969,265.0781 L701.3969,267.2969 Q700.6625,267.6094 699.8656,267.7656 Q699.0844,267.9219 698.3188,267.9219 Z " fill="#000000"/><text fill="#000000" font-family="sans-serif" font-size="12" lengthAdjust="spacing" textLength="26" x="718.15" y="265.656">Item</text><line style="stroke:#A80036;stroke-width:1.5;" x1="661" x2="770" y1="277" y2="277"/><rect fill="none" height="6" style="stroke:#C82930;stroke-width:1.0;" width="6" x="668" y="285"/><text fill="#000000" font-family="sans-serif" font-size="11" lengthAdjust="spacing" textLength="30" x="680" y="292.7589">id: int</text><rect fill="none" height="6" style="stroke:#C82930;stroke-width:1.0;" width="6" x="668" y="299.9819"/><text fill="#000000" font-family="sans-serif" font-size="11" lengthAdjust="spacing" textLength="50" x="680" y="307.7408">name: Str</text><rect fill="none" height="6" style="stroke:#C82930;stroke-width:1.0;" width="6" x="668" y="314.9638"/><text fill="#000000" font-family="sans-serif" font-size="11" lengthAdjust="spacing" textLength="80" x="680" y="322.7227">description: Str</text><rect fill="none" height="6" style="stroke:#C82930;stroke-width:1.0;" width="6" x="668" y="329.9457"/><text fill="#000000" font-family="sans-serif" font-size="11" lengthAdjust="spacing" textLength="59" x="680" y="337.7046">image: URL</text><rect fill="none" height="6" style="stroke:#C82930;stroke-width:1.0;" width="6" x="668" y="344.9276"/><text fill="#000000" font-family="sans-serif" font-size="11" lengthAdjust="spacing" textLength="85" x="680" y="352.6865">popularity: float</text><rect fill="none" height="6" style="stroke:#C82930;stroke-width:1.0;" width="6" x="668" y="359.9094"/><text fill="#000000" font-family="sans-serif" font-size="11" lengthAdjust="spacing" textLength="62" x="680" y="367.6684">rating: float</text><rect fill="none" height="6" style="stroke:#C82930;stroke-width:1.0;" width="6" x="668" y="374.8913"/><text fill="#000000" font-family="sans-serif" font-size="11" lengthAdjust="spacing" textLength="58" x="680" y="382.6502">votes: float</text><rect fill="none" height="6" style="stroke:#C82930;stroke-width:1.0;" width="6" x="668" y="389.8732"/><text fill="#000000" font-family="sans-serif" font-size="11" lengthAdjust="spacing" textLength="77" x="680" y="397.6321">tags: List&lt;Tag&gt;</text><line style="stroke:#A80036;stroke-width:1.5;" x1="661" x2="770" y1="404.8551" y2="404.8551"/><!--MD5=[3fd616f346a44cd59a91eb10b19e157c]
class User--><rect fill="#FEFECE" filter="url(#fag59cix6vrbi)" height="48" id="User" style="stroke:#A80036;stroke-width:1.5;" width="59" x="854" y="304"/><ellipse cx="869" cy="320" fill="#ADD1B2" rx="11" ry="11" style="stroke:#A80036;stroke-width:1.0;"/><path d="M868.4688,326.9219 Q866.7188,326.9219 865.5781,326.1875 Q864.4531,325.4375 863.8906,324.0938 Q863.3438,322.7344 863.3438,320.9375 Q863.3438,318.9063 864,317.4531 Q864.6563,316 865.9375,315.2188 Q867.2188,314.4375 869.0938,314.4375 Q869.9844,314.4375 870.6563,314.625 Q871.3281,314.7969 872.0156,315.1406 L871.2031,317.1563 Q870.5781,316.8438 870.0313,316.7188 Q869.5,316.5938 869.0156,316.5938 Q867.8438,316.5938 867.1406,317.125 Q866.4375,317.6563 866.1406,318.6094 Q865.8438,319.5625 865.8438,320.8281 Q865.8438,322.8438 866.5625,323.8125 Q867.2813,324.7656 868.875,324.7656 Q869.4688,324.7656 870.0938,324.6094 Q870.7188,324.4531 871.5469,324.0781 L871.5469,326.2969 Q870.8125,326.6094 870.0156,326.7656 Q869.2344,326.9219 868.4688,326.9219 Z " fill="#000000"/><text fill="#000000" font-family="sans-serif" font-size="12" lengthAdjust="spacing" textLength="27" x="883" y="324.656">User</text><line style="stroke:#A80036;stroke-width:1.5;" x1="855" x2="912" y1="336" y2="336"/><line style="stroke:#A80036;stroke-width:1.5;" x1="855" x2="912" y1="344" y2="344"/><!--MD5=[39d6d2ea03de602dbf4d534e70c872a9]
class Tag--><rect codeLine="117" fill="#FEFECE" filter="url(#fag59cix6vrbi)" height="77.9638" id="Tag" style="stroke:#A80036;stroke-width:1.5;" width="76" x="678" y="580.5"/><ellipse cx="703.35" cy="596.5" fill="#ADD1B2" rx="11" ry="11" style="stroke:#A80036;stroke-width:1.0;"/><path d="M702.8188,603.4219 Q701.0688,603.4219 699.9281,602.6875 Q698.8031,601.9375 698.2406,600.5938 Q697.6938,599.2344 697.6938,597.4375 Q697.6938,595.4063 698.35,593.9531 Q699.0063,592.5 700.2875,591.7188 Q701.5688,590.9375 703.4438,590.9375 Q704.3344,590.9375 705.0063,591.125 Q705.6781,591.2969 706.3656,591.6406 L705.5531,593.6563 Q704.9281,593.3438 704.3813,593.2188 Q703.85,593.0938 703.3656,593.0938 Q702.1938,593.0938 701.4906,593.625 Q700.7875,594.1563 700.4906,595.1094 Q700.1938,596.0625 700.1938,597.3281 Q700.1938,599.3438 700.9125,600.3125 Q701.6313,601.2656 703.225,601.2656 Q703.8188,601.2656 704.4438,601.1094 Q705.0688,600.9531 705.8969,600.5781 L705.8969,602.7969 Q705.1625,603.1094 704.3656,603.2656 Q703.5844,603.4219 702.8188,603.4219 Z " fill="#000000"/><text fill="#000000" font-family="sans-serif" font-size="12" lengthAdjust="spacing" textLength="21" x="719.65" y="601.156">Tag</text><line style="stroke:#A80036;stroke-width:1.5;" x1="679" x2="753" y1="612.5" y2="612.5"/><rect fill="none" height="6" style="stroke:#C82930;stroke-width:1.0;" width="6" x="686" y="620.5"/><text fill="#000000" font-family="sans-serif" font-size="11" lengthAdjust="spacing" textLength="30" x="698" y="628.2589">id: int</text><rect fill="none" height="6" style="stroke:#C82930;stroke-width:1.0;" width="6" x="686" y="635.4819"/><text fill="#000000" font-family="sans-serif" font-size="11" lengthAdjust="spacing" textLength="50" x="698" y="643.2408">name: Str</text><line style="stroke:#A80036;stroke-width:1.5;" x1="679" x2="753" y1="650.4638" y2="650.4638"/><!--MD5=[961589102dc7d7f8cecf154633da4d68]
reverse link RecommenderEnsemble to RecommenderEnsempleEvaluation--><path codeLine="13" d="M238.38,156.89 C217.79,198.39 193.41,247.55 176.16,282.32 " fill="none" id="RecommenderEnsemble-backto-RecommenderEnsempleEvaluation" style="stroke:#A80036;stroke-width:1.0;"/><polygon fill="#A80036" points="244.1,145.35,237.8514,148.9492,238.7704,156.1015,245.019,152.5023,244.1,145.35" style="stroke:#A80036;stroke-width:1.0;"/><text fill="#000000" font-family="sans-serif" font-size="13" lengthAdjust="spacing" textLength="7" x="221.9194" y="167.1065">1</text><text fill="#000000" font-family="sans-serif" font-size="13" lengthAdjust="spacing" textLength="8" x="171.2506" y="270.2236">n</text><!--MD5=[c8e4cd7558500d66cbdd14d39c996530]
reverse link RecommenderEnsempleEvaluation to RecommenderEnsempleEvaluationMetric--><path codeLine="15" d="M151.34,388.13 C148.87,442.85 145.26,523.01 143.02,572.63 " fill="none" id="RecommenderEnsempleEvaluation-backto-RecommenderEnsempleEvaluationMetric" style="stroke:#A80036;stroke-width:1.0;"/><polygon fill="#A80036" points="151.91,375.27,147.6437,381.0837,151.3693,387.2578,155.6356,381.4441,151.91,375.27" style="stroke:#A80036;stroke-width:1.0;"/><text fill="#000000" font-family="sans-serif" font-size="13" lengthAdjust="spacing" textLength="7" x="141.4032" y="397.1194">1</text><text fill="#000000" font-family="sans-serif" font-size="13" lengthAdjust="spacing" textLength="8" x="134.7044" y="560.8427">n</text><!--MD5=[6bcb38b373f4d073466b1fa4d61b3e78]
link Recommender to RecommenderType--><path codeLine="38" d="M446.86,724.32 C443.01,741.06 439.25,758.22 436,774.5 C432,794.55 428.22,816.37 424.97,836.57 " fill="none" id="Recommender-to-RecommenderType" style="stroke:#A80036;stroke-width:1.0;stroke-dasharray:7.0,7.0;"/><polygon fill="none" points="431.9,837.51,421.89,856.18,418.07,835.34,431.9,837.51" style="stroke:#A80036;stroke-width:1.0;"/><!--MD5=[161af6161452baca9572b20dde9bdb76]
link SimilarityMatrix to SimilarityMatrixType--><path codeLine="50" d="M616.48,980.71 C601.06,1015.55 582.38,1057.76 567.58,1091.19 " fill="none" id="SimilarityMatrix-to-SimilarityMatrixType" style="stroke:#A80036;stroke-width:1.0;stroke-dasharray:7.0,7.0;"/><polygon fill="none" points="574.04,1093.89,559.55,1109.34,561.24,1088.22,574.04,1093.89" style="stroke:#A80036;stroke-width:1.0;"/><!--MD5=[02f2aa6cdeb6b33a518c0d3602396c8e]
reverse link RecommenderEnsemble to RecommenderEnsembleConfig--><path codeLine="84" d="M336.53,155.15 C361.79,188.87 391.05,227.93 415.35,260.38 " fill="none" id="RecommenderEnsemble-backto-RecommenderEnsembleConfig" style="stroke:#A80036;stroke-width:1.0;"/><polygon fill="#A80036" points="329.04,145.15,329.4353,152.3503,336.2337,154.7547,335.8384,147.5545,329.04,145.15" style="stroke:#A80036;stroke-width:1.0;"/><text fill="#000000" font-family="sans-serif" font-size="13" lengthAdjust="spacing" textLength="7" x="341.7494" y="167.0059">1</text><text fill="#000000" font-family="sans-serif" font-size="13" lengthAdjust="spacing" textLength="8" x="401.0311" y="248.4071">n</text><!--MD5=[4bbf9abe7b3348dd5a33ec4089cdf580]
reverse link RecommenderEnsembleConfig to Recommender--><path codeLine="85" d="M467.97,410.81 C468.74,442.4 469.63,479.03 470.45,512.61 " fill="none" id="RecommenderEnsembleConfig-backto-Recommender" style="stroke:#A80036;stroke-width:1.0;"/><polygon fill="#FFFFFF" points="467.66,398.19,463.8062,404.2849,467.95,410.1865,471.8038,404.0916,467.66,398.19" style="stroke:#A80036;stroke-width:1.0;"/><text fill="#000000" font-family="sans-serif" font-size="13" lengthAdjust="spacing" textLength="7" x="459.7975" y="419.6465">1</text><text fill="#000000" font-family="sans-serif" font-size="13" lengthAdjust="spacing" textLength="7" x="462.9868" y="500.7454">1</text><!--MD5=[20b7ba7560eeeccd7897be15ec2faacc]
reverse link SimilarityMatrix to SimilarityMatrixCell--><path codeLine="88" d="M681.37,994.27 C693.95,1022.8 707.97,1054.62 720.04,1082.02 " fill="none" id="SimilarityMatrix-backto-SimilarityMatrixCell" style="stroke:#A80036;stroke-width:1.0;"/><polygon fill="#A80036" points="676.13,982.38,674.8886,989.4834,680.9682,993.3614,682.2096,986.258,676.13,982.38" style="stroke:#A80036;stroke-width:1.0;"/><text fill="#000000" font-family="sans-serif" font-size="13" lengthAdjust="spacing" textLength="7" x="679.9038" y="1004.1065">1</text><text fill="#000000" font-family="sans-serif" font-size="13" lengthAdjust="spacing" textLength="8" x="708.1712" y="1070.0055">n</text><!--MD5=[0d236e0b8adc3d2b98464b07c31e6e95]
reverse link Recommender to SimilarityMatrix--><path codeLine="90" d="M455.22,738.55 C456.72,757.71 461.08,776.73 470,793.5 C471.32,795.98 511.52,823.12 553.16,850.79 " fill="none" id="Recommender-backto-SimilarityMatrix" style="stroke:#A80036;stroke-width:1.0;"/><polygon fill="#FFFFFF" points="454.67,725.77,450.9309,731.9359,455.1844,737.759,458.9235,731.593,454.67,725.77" style="stroke:#A80036;stroke-width:1.0;"/><text fill="#000000" font-family="sans-serif" font-size="13" lengthAdjust="spacing" textLength="131" x="471" y="789.397">user_similarity_matrix</text><text fill="#000000" font-family="sans-serif" font-size="13" lengthAdjust="spacing" textLength="7" x="441.7144" y="747.2829">1</text><text fill="#000000" font-family="sans-serif" font-size="13" lengthAdjust="spacing" textLength="7" x="537.8808" y="841.6454">1</text><!--MD5=[0d236e0b8adc3d2b98464b07c31e6e95]
reverse link Recommender to SimilarityMatrix--><path codeLine="91" d="M582.42,735.69 C591.49,748.28 599.89,761.32 607,774.5 C618.6,796.01 627.05,821.33 633.05,844.33 " fill="none" id="Recommender-backto-SimilarityMatrix-1" style="stroke:#A80036;stroke-width:1.0;"/><polygon fill="#FFFFFF" points="574.83,725.48,575.2079,732.6812,582.0004,735.1021,581.6226,727.9009,574.83,725.48" style="stroke:#A80036;stroke-width:1.0;"/><text fill="#000000" font-family="sans-serif" font-size="13" lengthAdjust="spacing" textLength="132" x="617" y="789.397">item_similarity_matrix</text><text fill="#000000" font-family="sans-serif" font-size="13" lengthAdjust="spacing" textLength="7" x="593.1143" y="747.2829">1</text><text fill="#000000" font-family="sans-serif" font-size="13" lengthAdjust="spacing" textLength="7" x="624.148" y="832.3513">1</text><!--MD5=[275a606edc5e5500e870149b8e8bd3c2]
reverse link Interaction to Item--><path codeLine="101" d="M778.18,142.2 C767.65,173.66 754.9,211.75 743.7,245.24 " fill="none" id="Interaction-backto-Item" style="stroke:#A80036;stroke-width:1.0;"/><polygon fill="#A80036" points="782.22,130.14,776.5218,134.5593,778.4094,141.5189,784.1077,137.0996,782.22,130.14" style="stroke:#A80036;stroke-width:1.0;"/><text fill="#000000" font-family="sans-serif" font-size="13" lengthAdjust="spacing" textLength="8" x="762.48" y="151.7932">n</text><text fill="#000000" font-family="sans-serif" font-size="13" lengthAdjust="spacing" textLength="7" x="739.1314" y="233.0971">1</text><!--MD5=[cacffc973f04c44a7319eb764c76ac03]
reverse link Interaction to User--><path codeLine="103" d="M821.93,142.26 C839.84,195.58 864.13,267.86 876.33,304.17 " fill="none" id="Interaction-backto-User" style="stroke:#A80036;stroke-width:1.0;"/><polygon fill="#A80036" points="817.89,130.23,816.0096,137.1916,821.7124,141.6049,823.5928,134.6433,817.89,130.23" style="stroke:#A80036;stroke-width:1.0;"/><text fill="#000000" font-family="sans-serif" font-size="13" lengthAdjust="spacing" textLength="8" x="817.5663" y="151.9519">n</text><text fill="#000000" font-family="sans-serif" font-size="13" lengthAdjust="spacing" textLength="7" x="866.3291" y="292.0735">1</text><!--MD5=[eafaa2a5a8e840ec33c1b864d971a6e3]
reverse link Item to Tag--><path codeLine="122" d="M716,426.17 C716,479.05 716,541.67 716,580.74 " fill="none" id="Item-backto-Tag" style="stroke:#A80036;stroke-width:1.0;"/><polygon fill="#A80036" points="716,413.41,712,419.41,716,425.41,720,419.41,716,413.41" style="stroke:#A80036;stroke-width:1.0;"/><text fill="#000000" font-family="sans-serif" font-size="13" lengthAdjust="spacing" textLength="8" x="706.7969" y="434.5183">n</text><text fill="#000000" font-family="sans-serif" font-size="13" lengthAdjust="spacing" textLength="8" x="707.2375" y="568.6988">n</text><!--MD5=[0fcb2a38a3d64cb83d0716e0f251a5e3]
@startuml
class RecommenderEnsempleEvaluation {
    - id: int
    - enable: bool
    - ensemble: RecommenderEnsemble
}

class RecommenderEnsempleEvaluationMetric {
    - evaluation: RecommenderEnsempleEvaluation
    - user: User
    - value: float
}

RecommenderEnsemble "1" *- - "n" RecommenderEnsempleEvaluation

RecommenderEnsempleEvaluation "1" *- - "n" RecommenderEnsempleEvaluationMetric

class Recommender {
    - id: int
    - type: RecommenderType
    - name: str
    - description: str
    - position: int
    - enable: bool
    - user_similarity_matrix: SimilarityMatrix
    - item_similarity_matrix: SimilarityMatrix
    - max_similar_users: int
    - max_similar_items: int
    - max_items_by_similar_user: int
}

enum RecommenderType {
    POPULARS
    NEW_POPULARS
    USER_PROFILE
    COLLAVORATIVE_FILTERING
}

Recommender ..|> RecommenderType

class SimilarityMatrix {
    - id: int
    - name: str
    - type: SimilarityMatrixType
    - description: str
    - version: int (Last version)
    - cells: List<SimilarityMatrixCell>
}


SimilarityMatrix ..|> SimilarityMatrixType

enum SimilarityMatrixType {
    ITEM_TO_ITEM
    USER_TO_USER
}

class SimilarityMatrixCell {
    - id: int
    - matrix: SimilarityMatrix
    - row: int
    - column: int
    - value: float
    - version: int
}

class RecommenderEnsemble {
    - id: str
    - name: str
    - description: str
    - position: int
    - enable: bool
    - recommenderConfigs: List<RecommenderEnsembleConfig>
}

class RecommenderEnsembleConfig {
    - id: int
    - ensemble: RecommenderEnsemble
    - recommender: Recommender
    - active_from_n_user_iterations: int
    - active_to_n_user_iterations: int
    - n_items_by_session: int
}

RecommenderEnsemble "1" *- - "n" RecommenderEnsembleConfig
RecommenderEnsembleConfig "1" o- - "1" Recommender


SimilarityMatrix "1" *- - "n" SimilarityMatrixCell

Recommender "1" o- - "1" SimilarityMatrix: user_similarity_matrix
Recommender "1" o- - "1" SimilarityMatrix: item_similarity_matrix

class Interaction {
    - id: int
    - item: Item
    - user: User
    - rating: float
}


Interaction "n" *- - "1" Item

Interaction "n" *- - "1" User

class Item {
    - id: int
    - name: Str
    - description: Str
    - image: URL
    - popularity: float
    - rating: float
    - votes: float
    - tags: List<Tag>
}


class Tag {
    - id: int
    - name: Str
}

Item "n" *- - "n" Tag

@enduml

PlantUML version 1.2021.00(Sun Jan 10 07:25:05 ART 2021)
(MIT source distribution)
Java Runtime: OpenJDK Runtime Environment
JVM: OpenJDK 64-Bit Server VM
Default Encoding: UTF-8
Language: en
Country: US
--></g></svg>